<svg width="455" height="438" viewBox="0 0 455 438" fill="none" xmlns="http://www.w3.org/2000/svg">
<g filter="url(#filter0_i_126_1428)">
<path d="M192 0C238.114 0 276.389 33.5636 283.729 77.5947C265.109 80.6721 251 95.3524 251 113C251 125.953 258.602 137.306 270.009 143.647C253.423 169.141 224.681 186 192 186C140.638 186 99 144.362 99 93C99 41.6375 140.638 0 192 0Z" fill="#94CBDB"/>
</g>
<g filter="url(#filter1_i_126_1428)">
<path d="M192 202C298.039 202 384 291.991 384 403C384 409.75 383.681 416.421 383.061 423H315.552C316.505 416.479 317 409.8 317 403C317 330.651 261.036 272 192 272C122.964 272 67 330.651 67 403C67 409.8 67.4951 416.479 68.4482 423H0.939453C0.318687 416.421 0 409.75 0 403C0 291.991 85.9613 202 192 202Z" fill="#86C9DA"/>
</g>
<g filter="url(#filter2_di_126_1428)">
<path d="M192 272C261.036 272 317 330.651 317 403C317 409.8 316.505 416.479 315.552 423H68.4482C67.4951 416.479 67 409.8 67 403C67 330.651 122.964 272 192 272Z" fill="#C0E6E3"/>
</g>
<g filter="url(#filter3_i_126_1428)">
<path d="M386.936 4C398.534 4 407.936 14.137 407.936 26.6416C407.936 30.982 406.802 35.0365 404.838 38.4814L406.94 42H455V90.3984L450.481 93.0986C447.036 91.1344 442.982 90.001 438.642 90.001C426.137 90.001 416 99.403 416 111.001C416 122.599 426.137 132.001 438.642 132.001C442.982 132.001 447.036 130.866 450.481 128.901L455 131.603V182H407.538L404.838 177.481C406.802 174.036 407.936 169.982 407.936 165.642C407.936 153.137 398.534 143 386.936 143C375.338 143 365.936 153.137 365.936 165.642C365.936 169.982 367.071 174.036 369.035 177.481L366.334 182H320V130.744L318.481 129.837C315.036 131.801 310.982 132.937 306.642 132.937C294.137 132.937 284 123.534 284 111.937C284 100.339 294.137 90.9365 306.642 90.9365C310.982 90.9365 315.037 92.07 318.481 94.0342L320 93.126V42H366.932L369.035 38.4814C367.071 35.0364 365.936 30.9821 365.936 26.6416C365.936 14.1373 375.338 4.0004 386.936 4Z" fill="#C0E6E3"/>
</g>
<defs>
<filter id="filter0_i_126_1428" x="99" y="0" width="184.729" height="190" filterUnits="userSpaceOnUse" color-interpolation-filters="sRGB">
<feFlood flood-opacity="0" result="BackgroundImageFix"/>
<feBlend mode="normal" in="SourceGraphic" in2="BackgroundImageFix" result="shape"/>
<feColorMatrix in="SourceAlpha" type="matrix" values="0 0 0 0 0 0 0 0 0 0 0 0 0 0 0 0 0 0 127 0" result="hardAlpha"/>
<feOffset dy="4"/>
<feGaussianBlur stdDeviation="9.45"/>
<feComposite in2="hardAlpha" operator="arithmetic" k2="-1" k3="1"/>
<feColorMatrix type="matrix" values="0 0 0 0 0 0 0 0 0 0 0 0 0 0 0 0 0 0 0.25 0"/>
<feBlend mode="normal" in2="shape" result="effect1_innerShadow_126_1428"/>
</filter>
<filter id="filter1_i_126_1428" x="0" y="202" width="388" height="223" filterUnits="userSpaceOnUse" color-interpolation-filters="sRGB">
<feFlood flood-opacity="0" result="BackgroundImageFix"/>
<feBlend mode="normal" in="SourceGraphic" in2="BackgroundImageFix" result="shape"/>
<feColorMatrix in="SourceAlpha" type="matrix" values="0 0 0 0 0 0 0 0 0 0 0 0 0 0 0 0 0 0 127 0" result="hardAlpha"/>
<feOffset dx="4" dy="2"/>
<feGaussianBlur stdDeviation="10"/>
<feComposite in2="hardAlpha" operator="arithmetic" k2="-1" k3="1"/>
<feColorMatrix type="matrix" values="0 0 0 0 0.317647 0 0 0 0 0.635294 0 0 0 0 0.745098 0 0 0 1 0"/>
<feBlend mode="normal" in2="shape" result="effect1_innerShadow_126_1428"/>
</filter>
<filter id="filter2_di_126_1428" x="47" y="247" width="290" height="191" filterUnits="userSpaceOnUse" color-interpolation-filters="sRGB">
<feFlood flood-opacity="0" result="BackgroundImageFix"/>
<feColorMatrix in="SourceAlpha" type="matrix" values="0 0 0 0 0 0 0 0 0 0 0 0 0 0 0 0 0 0 127 0" result="hardAlpha"/>
<feOffset dy="-5"/>
<feGaussianBlur stdDeviation="10"/>
<feComposite in2="hardAlpha" operator="out"/>
<feColorMatrix type="matrix" values="0 0 0 0 0.388235 0 0 0 0 0.709804 0 0 0 0 0.807843 0 0 0 1 0"/>
<feBlend mode="normal" in2="BackgroundImageFix" result="effect1_dropShadow_126_1428"/>
<feBlend mode="normal" in="SourceGraphic" in2="effect1_dropShadow_126_1428" result="shape"/>
<feColorMatrix in="SourceAlpha" type="matrix" values="0 0 0 0 0 0 0 0 0 0 0 0 0 0 0 0 0 0 127 0" result="hardAlpha"/>
<feOffset dy="4"/>
<feGaussianBlur stdDeviation="9.45"/>
<feComposite in2="hardAlpha" operator="arithmetic" k2="-1" k3="1"/>
<feColorMatrix type="matrix" values="0 0 0 0 0 0 0 0 0 0 0 0 0 0 0 0 0 0 0.25 0"/>
<feBlend mode="normal" in2="shape" result="effect2_innerShadow_126_1428"/>
</filter>
<filter id="filter3_i_126_1428" x="284" y="4" width="171" height="182" filterUnits="userSpaceOnUse" color-interpolation-filters="sRGB">
<feFlood flood-opacity="0" result="BackgroundImageFix"/>
<feBlend mode="normal" in="SourceGraphic" in2="BackgroundImageFix" result="shape"/>
<feColorMatrix in="SourceAlpha" type="matrix" values="0 0 0 0 0 0 0 0 0 0 0 0 0 0 0 0 0 0 127 0" result="hardAlpha"/>
<feOffset dy="4"/>
<feGaussianBlur stdDeviation="9.45"/>
<feComposite in2="hardAlpha" operator="arithmetic" k2="-1" k3="1"/>
<feColorMatrix type="matrix" values="0 0 0 0 0 0 0 0 0 0 0 0 0 0 0 0 0 0 0.25 0"/>
<feBlend mode="normal" in2="shape" result="effect1_innerShadow_126_1428"/>
</filter>
</defs>
</svg>
