<svg width="708" height="472" viewBox="0 0 708 472" fill="none" xmlns="http://www.w3.org/2000/svg">
<path d="M0.557373 471.655H707.147V0.601501H0.557373V471.655Z" fill="#FFFBEB"/>
<path d="M110.812 374.268C98.376 374.268 88.2933 373.441 88.2933 372.415C88.2933 371.388 98.376 370.561 110.812 370.561C123.249 370.561 133.331 371.388 133.331 372.415C133.331 373.441 123.249 374.268 110.812 374.268Z" fill="#A7C0D0"/>
<path d="M174.219 374.268C161.781 374.268 151.699 373.441 151.699 372.415C151.699 371.388 161.781 370.561 174.219 370.561C186.655 370.561 196.737 371.388 196.737 372.415C196.737 373.441 186.655 374.268 174.219 374.268Z" fill="#A7C0D0"/>
<path d="M249.853 374.268C237.416 374.268 227.333 373.441 227.333 372.415C227.333 371.388 237.416 370.561 249.853 370.561C262.289 370.561 272.372 371.388 272.372 372.415C272.372 373.441 262.289 374.268 249.853 374.268Z" fill="#A7C0D0"/>
<path d="M364.704 374.268C352.267 374.268 342.185 373.441 342.185 372.415C342.185 371.388 352.267 370.561 364.704 370.561C377.14 370.561 387.223 371.388 387.223 372.415C387.223 373.441 377.14 374.268 364.704 374.268Z" fill="#A7C0D0"/>
<path d="M436.984 374.268C424.547 374.268 414.465 373.441 414.465 372.415C414.465 371.388 424.547 370.561 436.984 370.561C449.42 370.561 459.503 371.388 459.503 372.415C459.503 373.441 449.42 374.268 436.984 374.268Z" fill="#A7C0D0"/>
<path d="M509.265 374.268C496.828 374.268 486.745 373.441 486.745 372.415C486.745 371.388 496.828 370.561 509.265 370.561C521.701 370.561 531.783 371.388 531.783 372.415C531.783 373.441 521.701 374.268 509.265 374.268Z" fill="#A7C0D0"/>
<path d="M528.365 372.415H490.163V187.108H528.365V372.415Z" fill="#4677C4"/>
<path d="M528.365 372.415H515.031V187.108H528.365V372.415Z" fill="#25539C"/>
<path d="M456.085 372.415H417.883V187.108H456.085V372.415Z" fill="#4677C4"/>
<path d="M456.085 372.415H442.751V187.108H456.085V372.415Z" fill="#25539C"/>
<path d="M383.805 372.415H345.603V187.108H383.805V372.415Z" fill="#4677C4"/>
<path d="M383.805 372.415H370.471V187.108H383.805V372.415Z" fill="#25539C"/>
<path d="M191.233 372.415L158.188 353.242L269.125 189.455L300.692 210.975L191.233 372.415Z" fill="#4677C4"/>
<path d="M191.233 372.415L179.699 365.722L289.673 203.455L300.692 210.975L191.233 372.415Z" fill="#25539C"/>
<path d="M113.447 372.415L84.6987 347.255L214.776 202.282L243.255 227.748L113.447 372.415Z" fill="#4677C4"/>
<path d="M113.447 372.415L103.412 363.628L233.313 218.855L243.255 227.748L113.447 372.415Z" fill="#25539C"/>
<path d="M269.02 372.415L234.312 356.455L311.307 187.108L346.013 203.082L269.02 372.415Z" fill="#4677C4"/>
<path d="M269.02 372.415L256.904 366.842L333.899 197.508L346.013 203.082L269.02 372.415Z" fill="#25539C"/>
<path d="M588.889 369.068C588.889 369.068 590.116 371.682 589.231 372.215C588.344 372.762 583.396 372.402 582.793 372.215C582.189 372.042 582.273 370.788 582.948 370.508C583.623 370.242 586.359 369.335 586.359 369.335L587.799 368.708L588.889 369.068Z" fill="#12110F"/>
<path d="M602.277 369.068C602.277 369.068 603.504 371.682 602.617 372.215C601.731 372.762 596.784 372.402 596.18 372.215C595.577 372.042 595.661 370.788 596.336 370.508C597.011 370.242 599.745 369.335 599.745 369.335L601.187 368.708L602.277 369.068Z" fill="#12110F"/>
<path d="M602.313 369.282C601.719 369.882 599.628 369.962 599.239 369.335C598.851 368.722 592.895 330.055 592.895 330.055C592.895 330.055 589.223 369.215 589.084 369.735C588.947 370.242 586.383 369.775 586.14 369.308C585.943 368.935 583.903 335.722 583.123 322.962C582.937 319.922 582.824 318.042 582.824 318.042C582.981 318.082 586.489 318.068 590.359 318.042C591.829 318.042 593.351 318.028 594.761 318.015C598.047 317.988 600.725 317.962 600.725 317.962C600.725 317.962 600.808 319.868 600.935 322.922C601.465 335.695 602.792 368.788 602.313 369.282Z" fill="#3C465B"/>
<path d="M596.691 288.482L596.069 288.775L595.828 289.002C595.115 289.535 593.147 290.388 591.936 290.042C591.117 289.802 590.396 289.722 590.057 289.068C589.753 288.468 589.601 287.908 589.521 287.708L589.52 287.548C589.651 286.948 591.131 284.868 591.131 284.868C588.18 283.922 589.513 279.242 589.715 278.588C589.855 278.642 590.016 278.682 590.199 278.682C590.701 278.668 591.145 278.148 591.357 278.442C591.571 278.735 591.635 279.575 592.273 279.642C592.912 279.695 593.947 279.255 593.893 280.148C593.893 280.148 594.852 279.468 595.359 280.028C595.864 280.588 594.924 281.508 594.933 281.508L596.873 282.535C596.644 283.842 595.153 285.402 595.153 285.402C595.153 285.402 596.777 288.122 596.691 288.482Z" fill="#F8A379"/>
<path d="M598.62 282.055C598.209 282.575 597.709 282.668 597.348 282.641C596.145 282.468 594.941 281.508 594.933 281.508C594.924 281.508 595.864 280.588 595.359 280.028C594.852 279.468 593.893 280.148 593.893 280.148C593.947 279.255 592.912 279.695 592.273 279.641C591.635 279.575 591.571 278.735 591.357 278.441C591.145 278.148 590.701 278.668 590.199 278.681C590.016 278.681 589.855 278.641 589.715 278.588C588.436 278.041 588.925 275.428 589.857 274.188C590.891 272.801 592.107 273.641 592.617 273.828C593.125 274.015 594.123 271.828 595.276 272.321C596.429 272.801 596.292 274.148 597.289 274.695C598.285 275.228 599.449 275.015 599.833 276.415C600.217 277.828 599.055 278.601 598.989 279.401C598.925 280.201 599.347 281.135 598.62 282.055Z" fill="#12110F"/>
<path d="M603.701 323.788C603.701 323.788 602.296 325.068 602.416 325.495C602.536 325.908 603.1 326.188 603.516 325.815C603.516 325.815 603.365 327.455 604.129 327.682C604.893 327.895 605.628 327.722 606.101 326.962C606.573 326.202 605.58 323.722 605.58 323.722L604.435 323.108L603.701 323.788Z" fill="#F8A379"/>
<path d="M581.353 297.642C581.664 297.815 582.256 321.775 582.655 322.708L583.124 322.962C584.649 323.335 589.052 323.535 589.841 322.748C590.029 322.562 590.207 320.748 590.359 318.042C590.864 309.068 591.1 290.268 590.561 288.588L590.541 288.535L589.624 287.282C589.525 287.308 583.853 289.628 581.675 289.842C580.013 290.002 575.429 288.642 575.979 286.868C576.655 284.695 583.405 278.322 585.975 276.535L585.259 274.775C585.259 274.775 573.1 281.588 571.271 286.468C569.441 291.348 577.805 295.615 581.353 297.642Z" fill="#2B45A2"/>
<path d="M605.535 323.695C605.236 323.735 603.561 324.162 603.539 323.482C603.517 322.802 601.112 304.695 601.112 304.695C601.112 304.695 601.757 322.335 601.307 322.722C601.248 322.775 601.101 322.828 600.889 322.895C599.453 323.308 595.017 323.868 594.829 322.615C594.783 322.308 594.739 320.548 594.716 317.988C594.636 309.095 594.811 290.375 596.024 287.548C596.079 287.415 596.133 287.322 596.193 287.268L596.24 287.228C596.24 287.228 601.972 290.042 603.901 293.468C605.831 296.882 605.833 323.655 605.535 323.695Z" fill="#2B45A2"/>
<path d="M594.761 318.015C593.351 318.028 591.828 318.042 590.359 318.042C590.864 309.068 591.1 290.268 590.561 288.588C591.068 289.135 591.763 289.642 592.615 289.642C593.875 289.642 595.483 288.242 596.024 287.548C594.811 290.375 594.681 309.122 594.761 318.015Z" fill="white"/>
<path d="M592.695 308.855C592.557 302.468 592.725 295.988 593.031 289.602C593.031 289.602 592.821 289.642 592.615 289.642C592.411 289.642 592.209 289.615 592.209 289.615C591.643 294.722 591.189 299.842 590.881 304.975C590.661 308.855 590.5 312.735 590.652 316.628C590.712 317.935 590.803 319.255 591.027 320.615C591.027 320.615 592.404 322.642 592.871 322.708C593.336 322.762 593.689 320.082 593.689 320.082C592.913 316.442 592.811 312.588 592.695 308.855Z" fill="#73B32D"/>
<path d="M585.975 276.535C585.975 276.535 587.321 276.975 587.708 276.588C587.973 276.335 586.707 275.988 586.927 275.535C587.147 275.068 589.795 274.388 589.685 273.895C589.576 273.401 587.24 272.775 585.259 274.775L585.975 276.535Z" fill="#F8A379"/>
<path d="M593.757 374.268C581.32 374.268 571.239 373.441 571.239 372.415C571.239 371.735 575.809 371.135 582.591 370.815C582.269 371.281 582.321 372.081 582.793 372.215C583.16 372.335 585.133 372.508 586.823 372.508C587.912 372.508 588.883 372.428 589.231 372.215C589.641 371.975 589.597 371.268 589.433 370.601C590.832 370.575 592.279 370.561 593.757 370.561C594.587 370.561 595.407 370.575 596.212 370.575C595.653 370.935 595.617 372.055 596.18 372.215C596.548 372.335 598.521 372.508 600.211 372.508C601.299 372.508 602.271 372.428 602.617 372.215C603.003 371.988 602.988 371.361 602.849 370.721C610.757 371.015 616.277 371.655 616.277 372.415C616.277 373.441 606.195 374.268 593.757 374.268Z" fill="#A7C0D0"/>
<path d="M586.823 372.508C585.133 372.508 583.16 372.335 582.793 372.215C582.321 372.082 582.269 371.282 582.591 370.815C584.684 370.708 586.988 370.642 589.433 370.602C589.597 371.268 589.641 371.975 589.231 372.215C588.883 372.428 587.912 372.508 586.823 372.508Z" fill="#12100F"/>
<path d="M600.211 372.508C598.521 372.508 596.548 372.335 596.18 372.215C595.617 372.055 595.653 370.935 596.212 370.575C598.551 370.602 600.781 370.655 602.849 370.722C602.988 371.362 603.003 371.988 602.617 372.215C602.271 372.428 601.299 372.508 600.211 372.508Z" fill="#12100F"/>
</svg>
