<svg width="708" height="472" viewBox="0 0 708 472" fill="none" xmlns="http://www.w3.org/2000/svg">
<path d="M0.759766 471.255H707.346V0.194824H0.759766V471.255Z" fill="#FFFBEB"/>
<path d="M220.173 417.202C217.8 417.202 215.587 415.948 214.387 413.922C213.933 413.148 213.133 411.402 213.6 409.148V384.495C212.84 381.095 215.04 378.468 216.28 376.988C217.24 375.842 218.587 374.362 220.413 372.455C221.413 371.402 222.56 370.215 223.853 368.922C198.973 364.602 178.013 359.068 162.72 352.722C153.24 348.788 145.813 344.495 140.667 339.975C136.307 336.148 137.08 329.495 137.947 323.682C140.093 340.815 179.307 355.815 237.64 364.482C227.667 374.228 218.84 383.228 220.173 383.228V410.148C220 410.468 219.987 410.642 220.173 410.642C222.493 410.642 306.267 383.322 340.08 372.268C344.693 372.335 349.347 372.362 354.04 372.362C468.987 372.362 562.973 351.548 569.813 325.255C568.907 333.322 565.96 342.215 556.387 347.482C544.973 353.748 528.813 359.322 508.387 364.068C467.08 373.655 412.267 378.935 354.04 378.935C349.733 378.935 345.387 378.908 341.08 378.842C325.12 384.068 295.653 393.682 270.333 401.842C256.24 406.388 245.053 409.962 237.093 412.468C221.987 417.202 221.413 417.202 220.173 417.202Z" fill="#ACC9D7"/>
<path d="M354.04 272.015C249.507 272.015 137.88 295.642 137.88 295.642L137.853 322.188C137.853 342.335 189.027 359.708 262.853 367.695L220.173 383.228V410.148C220 410.468 219.987 410.642 220.173 410.642C222.493 410.642 306.266 383.322 340.08 372.268C344.693 372.335 349.347 372.362 354.04 372.362C473.427 372.362 570.213 349.895 570.213 322.188V296.228C570.213 296.228 455.24 272.015 354.04 272.015Z" fill="#2B45A2"/>
<path d="M354.04 244.602C234.64 244.602 137.853 267.068 137.853 294.775C137.853 314.935 189.027 332.308 262.853 340.295C262.853 340.295 217.253 383.228 220.173 383.228C222.493 383.228 306.266 355.908 340.08 344.855C344.693 344.922 349.347 344.962 354.04 344.962C473.427 344.962 570.213 322.495 570.213 294.775C570.213 267.068 473.427 244.602 354.04 244.602Z" fill="white"/>
<path d="M499.413 284.055L442.267 280.375L453.293 272.788L510.44 276.468L499.413 284.055Z" fill="#62748D"/>
<path d="M421.413 279.028L365.173 275.415L376.2 267.815L432.44 271.442L421.413 279.028Z" fill="#62748D"/>
<path d="M342.76 273.961L304.307 271.495L315.333 263.895L353.773 266.375L342.76 273.961Z" fill="#62748D"/>
<path d="M428.667 292.428L408.88 291.162L419.893 283.562L439.68 284.842L428.667 292.428Z" fill="#62748D"/>
<path d="M394.44 290.228L345.533 287.082L356.546 279.482L405.453 282.642L394.44 290.228Z" fill="#62748D"/>
<path d="M326.213 285.828L273.08 282.415L284.093 274.815L337.226 278.241L326.213 285.828Z" fill="#62748D"/>
<path d="M256.573 281.348L233.56 279.868L244.573 272.268L267.587 273.748L256.573 281.348Z" fill="#62748D"/>
<path d="M383.613 318.815L329.933 315.362L340.947 307.762L394.627 311.228L383.613 318.815Z" fill="#62748D"/>
<path d="M310.333 314.095L264.96 311.175L275.987 303.575L321.36 306.508L310.333 314.095Z" fill="#62748D"/>
<path d="M241.8 309.682L188.507 306.242L199.52 298.655L252.813 302.082L241.8 309.682Z" fill="#62748D"/>
<path d="M427.453 306.335L394.04 304.188L405.053 296.602L438.467 298.748L427.453 306.335Z" fill="#62748D"/>
<path d="M373.187 302.842L334.427 300.348L345.44 292.762L384.2 295.255L373.187 302.842Z" fill="#62748D"/>
<path d="M319.253 299.375L282.387 297.002L293.4 289.402L330.267 291.775L319.253 299.375Z" fill="#62748D"/>
<path d="M255.773 295.281L232.346 293.775L243.36 286.175L266.787 287.695L255.773 295.281Z" fill="#62748D"/>
<path d="M499.08 306.961C470.053 306.961 446.52 305.188 446.52 303.001C446.52 300.815 470.053 299.055 499.08 299.055C528.12 299.055 551.64 300.815 551.64 303.001C551.64 305.188 528.12 306.961 499.08 306.961Z" fill="#F4F4F4"/>
<path d="M480.226 159.214L480.067 162.094L480.147 162.174C480.333 162.32 480.84 162.72 481.44 163.174L481.507 163.227C482.547 164 483.853 164.907 484.333 164.974C484.773 165.04 485.96 164.214 487.026 163.334C488.093 162.467 489.027 161.534 489 161.36C488.933 160.987 488.347 157.921 488.347 157.921C488.347 157.921 488.987 156.44 489.547 154.4C487.88 154.067 486.907 152.694 486.907 152.694C486.907 152.694 488.106 151.48 487.36 150.8C486.466 149.974 485.52 151.134 485.52 151.134C484.56 147.574 475.667 148.267 475.667 148.267C475.667 148.267 474.253 157.227 480.226 159.214Z" fill="#F8A379"/>
<path d="M475.666 148.267C475.666 148.267 484.56 147.574 485.52 151.134C485.52 151.134 486.466 149.974 487.36 150.8C488.106 151.48 486.906 152.694 486.906 152.694C486.906 152.694 487.88 154.067 489.546 154.4C490.36 151.454 491.026 147.334 489.44 144.814C486.213 139.667 474.293 142.44 474.293 142.44C474.293 142.44 473.813 147.854 475.666 148.267Z" fill="#100F0D"/>
<path d="M482.426 297.362C482.426 297.362 483.267 300.162 482.84 301.868C482.413 303.575 471.733 303.002 471.12 302.442C470.493 301.882 470.506 301.135 471.76 300.308C473 299.482 476.667 297.548 476.667 297.548C476.667 297.548 481.76 296.895 482.426 297.362Z" fill="#100F0D"/>
<path d="M537.36 274.855C537.36 274.855 540.093 275.855 541.213 277.228C542.32 278.588 535.467 286.788 534.653 286.948C533.84 287.121 533.24 286.655 533.32 285.162C533.413 283.668 533.867 279.841 533.867 279.841C533.867 279.841 536.587 275.108 537.36 274.855Z" fill="#100F0D"/>
<path d="M469.707 210.135C469.707 210.135 469.653 210.522 469.573 211.202C468.813 216.895 465.373 243.535 466.213 247.455C467.147 251.855 476.667 297.548 476.667 297.548C476.667 297.548 482.6 297.842 482.4 297.295C482.213 296.735 479.653 254.748 479.493 248.308C479.32 241.868 483.253 225.682 483.92 225.762C484.573 225.855 492.453 245.522 496.88 249.388C501.32 253.255 527.973 277.188 533.826 280.135L537.387 274.802C537.387 274.802 509.773 247.442 507.6 242.815C506.08 239.575 503.2 229.362 501.373 221.282C500.587 217.828 500.013 214.775 499.8 212.802L489.867 210.202C489.773 210.175 487.12 209.988 486.253 209.975C484.68 209.962 484.253 209.988 481.467 209.975C475.96 209.975 469.707 210.135 469.707 210.135Z" fill="#3C465B"/>
<path d="M489 161.268C489 161.268 496.04 162.722 498.533 166.468C501.627 171.122 499.773 191.535 499.973 195.308C500.173 199.095 502.307 213.028 499.347 214.735C496.387 216.428 487.173 216.175 487.04 214.962C486.893 213.735 486.6 204.615 486.56 199.095C486.507 193.575 486.213 163.681 486.813 163.015C487.413 162.348 489 161.268 489 161.268Z" fill="#2B45A2"/>
<path d="M481.346 162.255C481.84 162.735 482.386 197.748 482.426 209.975H486.746C486.386 197.162 486.32 164.015 486.813 163.015C485.653 163.761 484.373 164.442 483.946 164.322C483.466 164.202 482.28 163.148 481.346 162.255Z" fill="white"/>
<path d="M487.053 185.628L487.56 186.415C487.973 186.975 488.453 187.575 488.92 188.081C489.187 188.348 489.507 188.695 489.787 188.935C489.96 189.095 490.32 189.402 490.493 189.562C494.533 192.842 499.64 194.601 504.453 196.281C507.293 197.335 513.093 198.975 514.573 201.308C514.573 201.308 519.013 204.748 519.613 204.468C520.2 204.201 519.867 197.601 519.867 197.601C519.48 197.081 519.04 196.615 518.56 196.175C518.267 195.948 517.933 195.655 517.64 195.455C514.147 193.082 509.8 192.268 505.947 191.255C501.733 190.188 497.56 189.201 493.813 187.041C492.493 186.268 491.373 185.388 490.4 184.255C486.72 179.668 485.52 173.428 484.92 167.668C484.827 166.575 484.787 165.228 484.773 164.135C484.773 164.135 484.16 164.362 483.947 164.322C483.733 164.295 483.213 163.895 483.213 163.895C482.8 170.882 483.347 179.468 487.053 185.628Z" fill="#73B32D"/>
<path d="M437.4 151.201C437.4 151.201 437.867 147.987 437.333 147.974C436.52 147.947 436.213 149.881 436.213 149.881C436.213 149.881 435.16 148.307 433.907 147.974C433.027 147.734 430.747 149.454 431.453 151.201C431.893 152.321 435.16 153.801 435.16 153.681L437.4 151.201Z" fill="#F8A379"/>
<path d="M480.04 160.935C480.04 160.935 472.68 162.948 470.48 163.242C468.653 163.468 460.333 165.948 458.4 164.788C456.693 163.762 437.4 151.202 437.4 151.202L435.16 153.682C435.16 153.682 452.32 169.602 454.707 171.655C457.107 173.708 468.653 174.562 469 177.508C469.333 180.455 467.667 213.188 469.747 214.215C471.827 215.255 481.32 216.375 482.133 214.348C482.96 212.308 482.027 201.762 482.387 197.295C482.76 192.842 481.827 163.122 481.347 162.255C480.867 161.388 480.04 160.935 480.04 160.935Z" fill="#2B45A2"/>
<path d="M447.093 111.615L464.32 116.655L426.48 246.188L425.293 250.255L418.36 274.028L401.12 268.988L415.12 221.068L420.333 203.202L441.2 131.788L443.946 122.375L447.093 111.615Z" fill="#3C465B"/>
<path d="M460.093 99.1071C455.333 97.7204 450.467 100.067 449.213 104.347L447.093 111.614L464.32 116.654L466.44 109.374C467.693 105.094 464.853 100.507 460.093 99.1071Z" fill="#73B32D"/>
<path d="M401.12 268.988L401.053 301.215L418.36 274.028L401.12 268.988Z" fill="#F07C5F"/>
<path d="M401.053 301.215L405.413 294.362L401.08 293.095L401.053 301.215Z" fill="#3C465B"/>
<path d="M495.307 175.014C495.307 175.014 477.267 189.027 471.053 188.787C464.853 188.547 438.76 171.654 438.76 171.654L440.293 168.307C440.293 168.307 464.707 179.654 471.12 180.054C477.547 180.467 489.173 167.201 489.173 167.201L495.307 175.014Z" fill="#2B45A2"/>
<path d="M440.293 168.307C440.36 168.067 439.786 165.814 439.053 165.614C438.32 165.427 438.986 167.294 438.546 167.56C438.12 167.814 436.16 166.52 435.066 165.054C434.533 164.32 432.96 168.334 434.693 169.694C436.426 171.067 438.76 171.654 438.76 171.654L440.293 168.307Z" fill="#F8A379"/>
<path d="M280.893 218.055C268.146 220.935 265.8 223.268 262.92 236.015C260.04 223.268 257.706 220.935 244.96 218.055C257.706 215.175 260.04 212.841 262.92 200.081C265.8 212.841 268.146 215.175 280.893 218.055Z" fill="white"/>
<path d="M477.12 394.055C467.92 396.121 466.227 397.815 464.147 407.015C462.067 397.815 460.387 396.121 451.187 394.055C460.387 391.975 462.067 390.281 464.147 381.081C466.227 390.281 467.92 391.975 477.12 394.055Z" fill="white"/>
<path d="M406.24 171.654C400.96 172.841 400 173.814 398.813 179.081C397.613 173.814 396.653 172.841 391.373 171.654C396.653 170.454 397.613 169.494 398.813 164.214C400 169.494 400.96 170.454 406.24 171.654Z" fill="white"/>
</svg>
