<svg width="707" height="472" viewBox="0 0 707 472" fill="none" xmlns="http://www.w3.org/2000/svg">
<path d="M0 471.06H706.587V3.05176e-05H0V471.06Z" fill="#FFFBEB"/>
<path d="M230.6 414.9C184.54 414.9 147.2 410.74 147.2 405.62C147.2 400.486 184.54 396.327 230.6 396.327C276.661 396.327 314 400.486 314 405.62C314 410.74 276.661 414.9 230.6 414.9Z" fill="#B4D1E1"/>
<path d="M261.821 400.273C261.821 400.273 259.819 404.007 261.123 405.087C262.427 406.18 272.584 405.3 273.025 404.833C273.467 404.367 273.261 403.007 272.403 402.633C271.543 402.247 266.403 400.327 266.347 400.3L261.821 400.273Z" fill="#12110F"/>
<path d="M185.123 377.34C185.123 377.34 181.217 377.287 180.817 378.78C180.417 380.287 185.124 388.087 185.685 388.26C186.247 388.42 187.305 387.687 187.287 386.833C187.267 385.993 186.871 381.047 186.861 380.993L185.123 377.34Z" fill="#12110F"/>
<path d="M255.269 338.66C255.269 338.66 261.533 347.286 262.088 350.42C263.457 358.153 266.313 400.3 266.313 400.3L261.847 400.273C261.847 400.273 251.123 357.406 249.82 352.94C248.517 348.486 240.208 343.18 240.208 343.18L255.269 338.66Z" fill="#F8A379"/>
<path d="M234.745 343.567C234.745 343.567 236.544 354.5 233.563 359.607C230.288 365.207 186.907 381.54 186.907 381.54C186.907 381.54 185.119 377.82 185.197 377.287C185.276 376.767 219.451 358.313 222.272 355.033C223.707 353.367 219.784 343.607 219.784 343.607L234.745 343.567Z" fill="#F8A379"/>
<path d="M216.097 347.26C217.967 348.633 233.364 347.86 237.667 347.26C241.968 346.66 258.684 344.046 257.94 342.606C257.075 340.926 249.453 321.58 247.828 311.06C247.361 308.046 246.899 305.9 246.477 305.326C246.441 305.273 241.28 305.86 235.495 306.526C233.877 306.713 232.212 306.9 230.595 307.1C224.797 307.766 219.635 308.38 219.635 308.38C219.635 308.38 219.244 309.566 218.841 311.3C218.196 314.06 217.52 318.193 218.38 320.966C219.779 325.486 219.099 333.646 219.08 334.486C219.061 335.326 214.229 345.873 216.097 347.26Z" fill="#3C465B"/>
<path d="M171.169 277.073C171.169 277.073 196.697 287.14 201.329 286.06C205.96 284.98 219.547 278.06 219.547 278.06C219.547 278.06 220.489 289.353 220.341 293.327C220.193 297.3 218.924 304.047 218.453 308.127C218.225 310.1 218.544 311.927 219.311 313.327C220.131 314.847 221.467 315.887 223.2 316.113C226.544 316.58 231.865 317.127 232.608 315.047C232.939 314.113 233.089 310.967 233.221 307.447C233.388 303.033 233.52 298.047 233.919 296.1C234.637 292.633 236.841 280.673 236.173 277.767C235.507 274.86 233.375 269.193 232.709 267.42C232.045 265.647 230.992 261.78 230.992 261.78L227.437 259.327L227.421 259.313L227.408 259.3C227.408 259.3 215.047 265.673 211.123 269.633C207.196 273.593 201.725 278.887 200.048 279.14C198.371 279.407 172.352 274.487 172.352 274.487L171.169 277.073Z" fill="#2B45A2"/>
<path d="M172.353 274.486C172.353 274.486 170.431 271.967 168.532 272.207C166.635 272.447 166.259 275.26 167.053 276.247C167.847 277.22 171.169 277.073 171.169 277.073L172.353 274.486Z" fill="#F8A379"/>
<path d="M236.173 277.767C236.841 280.673 234.637 292.633 233.919 296.1C233.52 298.047 233.388 303.033 233.221 307.447H235.949C236.305 303.58 236.948 299.473 237.404 297.847C238.304 294.66 240.927 281.073 240.883 276.82C240.836 272.567 238.481 269.38 237.404 266.74C236.388 264.247 235.925 261.753 235.876 261.473C235.361 262.1 235.213 265.647 234.519 265.753C233.604 265.9 232.28 262.54 230.992 261.78C230.992 261.78 232.045 265.647 232.709 267.42C233.375 269.193 235.507 274.86 236.173 277.767Z" fill="white"/>
<path d="M236.173 315.62C237.357 317.233 246.343 317.313 249.713 316.313C250.017 316.22 250.277 316.113 250.481 316.007C252.924 314.7 250.589 299.953 250.294 296.713C249.997 293.487 249.384 288.007 249.788 284.993C250.19 281.967 250.524 277.887 250.363 275.113C250.201 272.34 249.396 271.247 249.396 271.247C249.396 271.247 262.779 283.78 267.552 282.313C275.017 280.007 275.365 251.527 275.365 251.527L272.261 251.447C272.261 251.447 269.621 271.607 265.896 272.487C264.799 272.753 258.028 263.58 249.156 260.42C242.774 258.153 237.609 258.487 237.609 258.487H237.607L237.532 258.607L237.494 258.673L237.449 258.753L237.396 258.847L237.342 258.94L237.242 259.1L237.137 259.287L237.101 259.353L236.985 259.54C236.828 259.82 236.66 260.1 236.508 260.367L236.393 260.553L236.356 260.62L235.872 261.447L235.876 261.473C235.925 261.753 236.388 264.247 237.404 266.74C238.481 269.38 240.836 272.567 240.882 276.82C240.926 281.073 238.304 294.66 237.404 297.847C236.948 299.473 236.305 303.58 235.949 307.447C235.608 311.207 235.537 314.753 236.173 315.62Z" fill="#2B45A2"/>
<path d="M272.285 251.447C272.18 251.367 269.268 249.354 270.047 248.46C270.781 247.607 271.703 250.26 272.072 249.087C272.212 248.647 271.788 247.433 272.101 247.207C272.989 246.54 274.42 246.873 275.24 246.9C275.772 246.9 276.271 247.553 276.165 248.087C275.897 249.393 275.388 251.527 275.388 251.527L272.285 251.447Z" fill="#F8A379"/>
<path d="M228.019 253.3L227.408 259.3L227.421 259.313L227.437 259.327L230.992 261.78C232.28 262.54 233.604 265.9 234.519 265.753C235.213 265.646 235.361 262.1 235.876 261.473L235.887 261.46C235.887 261.447 236.089 261.086 236.356 260.62L236.393 260.553L236.508 260.367C236.66 260.1 236.828 259.82 236.985 259.54L237.101 259.353L237.137 259.286L237.243 259.1L237.343 258.94L237.396 258.847L237.449 258.753L237.495 258.673L237.532 258.607L237.607 258.486H237.609L236.691 254.327C236.691 254.327 241.051 250.567 242.127 245.167C242.127 245.167 239.021 239.913 236.501 238.486C236.501 238.486 234.248 246.86 225.092 249.673C225.793 250.927 226.741 252.193 228.019 253.3Z" fill="#F8A379"/>
<path d="M211.853 252.767C211.656 253.5 211.452 254.113 211.367 254.887C211.249 255.94 211.085 256.994 210.756 258.007C210.537 258.687 210.241 259.34 209.853 259.927C209.453 260.554 208.893 260.967 208.433 261.487C209.657 261.287 210.971 260.58 211.717 259.58C212.135 259.02 212.32 258.327 212.512 257.66C212.985 256.047 213.781 254.527 214.685 253.1C214.936 252.714 215.197 252.327 215.469 251.94C216.624 250.3 217.932 248.78 219.276 247.3C219.899 246.607 220.46 245.86 221.091 245.194C221.423 244.834 221.765 244.487 222.127 244.167L223.103 243.394C223.103 243.394 223.297 246.487 225.092 249.674C234.248 246.86 236.5 238.487 236.5 238.487C239.021 239.913 242.125 245.167 242.125 245.167C243.227 239.647 242.276 233.82 237.272 232.247C232.995 230.9 230.473 232.18 230.473 232.18C230.473 232.18 230.225 228.714 227.764 229.927C225.067 231.247 227.595 233.607 227.595 233.607C227.595 233.607 224.509 236.114 223.48 237.967C222.652 239.46 222.173 241.18 221.217 242.58C220.344 243.887 219.501 244.847 218.111 245.634C216.377 246.62 214.715 247.487 213.251 248.874C212.112 249.954 211.136 250.954 209.603 251.434C208.807 251.687 207.991 251.9 207.159 251.994C206.568 252.074 205.437 252.287 204.881 252.047C205.985 252.527 207.169 252.82 208.365 252.927C208.967 252.994 209.569 253.007 210.173 252.98C210.34 252.98 211.805 252.954 211.853 252.767Z" fill="#100F0D"/>
<path d="M277.429 248.967C274.344 250.713 270.409 249.633 268.656 246.553C268.412 246.113 268.219 245.673 268.081 245.207L269.644 244.74C269.747 245.087 269.891 245.42 270.073 245.74C271.383 248.047 274.321 248.86 276.624 247.553C278.415 246.527 279.357 244.487 278.971 242.473L280.572 242.167C281.091 244.873 279.827 247.607 277.429 248.967Z" fill="#3C465B"/>
<path d="M266.313 234.58L271.976 244.553C270.92 244.86 269.88 245.193 268.877 245.58C268.258 245.82 267.655 246.087 267.068 246.353C265.913 246.887 264.647 246.94 263.512 246.58C262.803 246.353 262.144 245.967 261.597 245.434C261.272 245.114 260.984 244.754 260.749 244.34C260.513 243.927 260.345 243.487 260.24 243.047C259.785 241.113 260.541 239.047 262.253 237.874C263.656 236.914 265.016 235.793 266.313 234.58Z" fill="#3C465B"/>
<path d="M278.961 217.993L292.699 242.18C292.699 242.18 286.749 241.953 279.785 242.927C277.237 243.287 274.555 243.807 271.976 244.553L266.313 234.58C273.637 227.74 278.961 217.993 278.961 217.993Z" fill="#73B32D"/>
<path d="M280.952 216.86L294.688 241.047L292.699 242.18L278.961 217.994L280.952 216.86Z" fill="#3C465B"/>
<path d="M290.597 227.38C291.084 228.233 291.176 229.206 290.933 230.086C290.723 230.846 290.256 231.54 289.571 232.033L286.072 225.873C287.721 225.153 289.688 225.78 290.597 227.38Z" fill="#73B32D"/>
<path d="M260.749 244.34C260.984 244.753 261.272 245.113 261.597 245.433L260.421 246.1C259.763 246.473 258.924 246.247 258.551 245.58C258.363 245.26 258.325 244.887 258.42 244.54C258.512 244.207 258.736 243.9 259.065 243.713L260.24 243.047C260.345 243.487 260.513 243.927 260.749 244.34Z" fill="#3C465B"/>
<path d="M344.665 190.82C344.185 192.673 343.928 194.607 343.928 196.62C343.928 209.273 354.194 219.553 366.86 219.553C371.734 219.553 376.245 218.02 379.961 215.433C387.313 226.78 402.546 234.58 420.133 234.58C439.533 234.58 456.053 225.113 462.32 211.833C466.333 218.5 473.627 222.967 481.973 222.967C488.267 222.967 493.96 220.42 498.107 216.327C515.88 218.553 533.64 203.42 538.613 181.233C541.76 167.22 539.08 153.58 532.4 144.02C533.586 141.26 534.24 138.207 534.24 134.993C534.24 123.94 526.427 114.713 516.013 112.553C517.307 108.753 518.026 104.673 518.026 100.433C518.026 79.6601 501.173 62.8068 480.387 62.8068C471.68 62.8068 463.68 65.7668 457.293 70.7268C450.973 60.9935 440.027 54.5534 427.547 54.5534C411.68 54.5534 398.253 64.9801 393.733 79.3534C388.797 76.6867 383.033 75.1401 376.875 75.1401C358.679 75.1401 343.928 88.5401 343.928 105.073C343.928 111.34 346.059 117.167 349.697 121.98C349.385 121.967 349.081 121.953 348.769 121.953C329.683 121.953 314.212 137.433 314.212 156.513C314.212 174.207 327.515 188.793 344.665 190.82Z" fill="white"/>
<path d="M320.775 203.286C320.021 206.993 321.807 210.486 324.763 211.086C327.717 211.686 330.724 209.167 331.476 205.46C332.228 201.753 330.443 198.26 327.488 197.66C324.532 197.06 321.527 199.58 320.775 203.286Z" fill="white"/>
<path d="M310.437 212.647C309.957 215.02 311.488 217.327 313.859 217.807C316.231 218.287 318.543 216.753 319.024 214.393C319.505 212.02 317.973 209.7 315.603 209.22C313.232 208.74 310.92 210.273 310.437 212.647Z" fill="white"/>
<path d="M300.979 219.26C300.733 220.473 301.512 221.647 302.717 221.887C303.924 222.14 305.099 221.353 305.344 220.153C305.589 218.94 304.809 217.767 303.604 217.527C302.399 217.273 301.223 218.06 300.979 219.26Z" fill="white"/>
<path d="M392.825 129.152H402.707V151.899C402.707 162.659 397.573 166.646 388.72 166.646C386.709 166.646 384.028 166.365 382.18 165.752L383.22 157.819C384.424 158.152 385.971 158.432 387.571 158.432C390.745 158.432 392.825 157.019 392.825 151.926V129.152Z" fill="#2B45A2"/>
<path d="M418.16 147.632C418.16 154.566 421.187 158.819 425.907 158.819C430.707 158.819 433.493 154.192 433.493 147.539C433.493 141.192 430.64 136.379 425.853 136.379C421.187 136.379 418.16 140.846 418.16 147.632ZM443.933 147.219C443.933 159.085 436.813 166.646 425.427 166.646C413.987 166.646 407.707 158.059 407.707 147.819C407.707 137.072 414.747 128.552 426.04 128.552C437.907 128.552 443.933 137.352 443.933 147.219Z" fill="#2B45A2"/>
<path d="M458.987 159.099C459.72 159.206 460.56 159.206 461.84 159.206C465.12 159.206 467.92 157.899 467.92 154.659C467.92 151.539 465.067 150.326 461.36 150.326H458.987V159.099ZM458.987 143.352H460.973C465.147 143.352 467.173 141.873 467.173 139.499C467.173 137.326 465.533 135.966 462.213 135.966C460.56 135.966 459.64 136.059 458.987 136.179V143.352ZM449.213 129.659C451.44 129.246 456.307 128.859 460.867 128.859C466.08 128.859 469.24 129.232 472.107 130.672C474.987 132.006 477.08 134.659 477.08 138.259C477.08 141.366 475.387 144.392 471.093 146.006V146.139C475.613 147.366 478.32 150.712 478.32 155.086C478.32 158.566 476.64 161.286 474.187 163.139C471.413 165.219 466.827 166.446 458.92 166.446C454.467 166.446 451.187 166.166 449.213 165.846V129.659Z" fill="#2B45A2"/>
</svg>
