<svg width="707" height="472" viewBox="0 0 707 472" fill="none" xmlns="http://www.w3.org/2000/svg">
<mask id="mask0_114_1978" style="mask-type:luminance" maskUnits="userSpaceOnUse" x="0" y="0" width="707" height="472">
<path d="M0 471.06H706.589V0H0V471.06Z" fill="white"/>
</mask>
<g mask="url(#mask0_114_1978)">
<path d="M0 471.06H706.589V0H0V471.06Z" fill="#FFFBEB"/>
</g>
<mask id="mask1_114_1978" style="mask-type:luminance" maskUnits="userSpaceOnUse" x="0" y="0" width="707" height="472">
<path d="M0 471.06H706.589V0H0V471.06Z" fill="white"/>
</mask>
<g mask="url(#mask1_114_1978)">
<path d="M269.42 241.526L270.935 250.047C270.935 250.047 270.852 250.126 270.705 250.286C270.187 250.806 268.844 252.166 267.228 253.7L267.023 253.9C264.209 256.566 260.668 259.713 259.232 260.086C257.963 260.406 254.153 258.393 250.68 256.153L250.671 256.14C247.228 253.927 244.111 251.5 244.136 250.953C244.189 249.846 244.873 240.526 244.873 240.526C244.873 240.526 242.475 236.353 240.092 230.473C244.927 228.9 247.32 224.486 247.32 224.486C247.32 224.486 243.355 221.327 245.317 219.047C247.705 216.287 250.915 219.393 250.915 219.393C252.532 208.473 279.173 207.433 279.173 207.433C279.173 207.433 286.495 233.553 269.42 241.526Z" fill="#F8A379"/>
</g>
<mask id="mask2_114_1978" style="mask-type:luminance" maskUnits="userSpaceOnUse" x="0" y="0" width="707" height="472">
<path d="M0 471.06H706.589V0H0V471.06Z" fill="white"/>
</mask>
<g mask="url(#mask2_114_1978)">
<path d="M279.173 207.434C279.173 207.434 252.532 208.474 250.915 219.394C250.915 219.394 247.705 216.287 245.317 219.047C243.355 221.327 247.32 224.487 247.32 224.487C247.32 224.487 244.927 228.9 240.092 230.474C236.659 222.007 233.244 210.007 237.079 201.967C244.873 185.58 281.22 189.66 281.22 189.66C281.22 189.66 284.527 205.594 279.173 207.434Z" fill="#12110F"/>
</g>
<mask id="mask3_114_1978" style="mask-type:luminance" maskUnits="userSpaceOnUse" x="0" y="0" width="707" height="472">
<path d="M0 471.06H706.589V0H0V471.06Z" fill="white"/>
</mask>
<g mask="url(#mask3_114_1978)">
<path d="M209.889 625.887C212.548 628.593 221.893 628.94 223.631 626.167C225.368 623.38 251.984 450.593 251.984 450.593C251.984 450.593 268.399 625.633 269.015 627.913C269.631 630.207 281.091 628.113 282.175 626.047C283.056 624.38 292.179 475.94 295.656 418.9C296.487 405.327 296.991 396.927 296.991 396.927C296.288 397.073 280.612 397.02 263.321 396.913C256.751 396.873 249.947 396.833 243.641 396.78C228.959 396.673 216.984 396.567 216.984 396.567C216.984 396.567 216.617 405.047 216.052 418.727C213.679 475.82 207.745 623.713 209.889 625.887Z" fill="#3C465B"/>
</g>
<mask id="mask4_114_1978" style="mask-type:luminance" maskUnits="userSpaceOnUse" x="0" y="0" width="707" height="472">
<path d="M0 471.06H706.589V0H0V471.06Z" fill="white"/>
</mask>
<g mask="url(#mask4_114_1978)">
<path d="M195.871 432.953L173.809 432.874L173.827 428.607C173.832 427.327 174.871 426.3 176.144 426.3L193.589 426.38C194.861 426.38 195.893 427.42 195.888 428.7L195.871 432.953ZM169.879 428.58L169.845 436.793L199.801 436.927L199.835 428.713C199.849 425.26 197.055 422.447 193.605 422.433L176.16 422.353C172.711 422.34 169.893 425.14 169.879 428.58Z" fill="#100F0D"/>
</g>
<mask id="mask5_114_1978" style="mask-type:luminance" maskUnits="userSpaceOnUse" x="0" y="0" width="707" height="472">
<path d="M0 471.06H706.589V0H0V471.06Z" fill="white"/>
</mask>
<g mask="url(#mask5_114_1978)">
<path d="M143.625 489.26L225.725 489.593L225.829 464.1L143.729 463.767L143.625 489.26Z" fill="#1D1C17"/>
</g>
<mask id="mask6_114_1978" style="mask-type:luminance" maskUnits="userSpaceOnUse" x="0" y="0" width="707" height="472">
<path d="M0 471.06H706.589V0H0V471.06Z" fill="white"/>
</mask>
<g mask="url(#mask6_114_1978)">
<path d="M143.596 463.767L184.823 475.833L225.829 464.1L225.96 432.047L143.727 431.714L143.596 463.767Z" fill="#2E3224"/>
</g>
<mask id="mask7_114_1978" style="mask-type:luminance" maskUnits="userSpaceOnUse" x="0" y="0" width="707" height="472">
<path d="M0 471.06H706.589V0H0V471.06Z" fill="white"/>
</mask>
<g mask="url(#mask7_114_1978)">
<path d="M325.42 201.633L303.109 203.713C302.089 203.807 301.019 202.94 300.608 201.687L298.571 195.447C298.161 194.193 298.54 192.94 299.457 192.527L319.492 183.487L325.42 201.633Z" fill="#100F0D"/>
</g>
<mask id="mask8_114_1978" style="mask-type:luminance" maskUnits="userSpaceOnUse" x="0" y="0" width="707" height="472">
<path d="M0 471.06H706.589V0H0V471.06Z" fill="white"/>
</mask>
<g mask="url(#mask8_114_1978)">
<path d="M452.988 195.927L332.203 212.633C330.475 212.873 328.619 211.42 327.919 209.273L316.995 175.847C316.295 173.7 316.98 171.58 318.579 170.94L430.309 126.527L452.988 195.927Z" fill="#623241"/>
</g>
<mask id="mask9_114_1978" style="mask-type:luminance" maskUnits="userSpaceOnUse" x="0" y="0" width="707" height="472">
<path d="M0 471.06H706.589V0H0V471.06Z" fill="white"/>
</mask>
<g mask="url(#mask9_114_1978)">
<path d="M557.052 186.82L459.355 202.967C457.168 203.314 454.797 201.474 453.909 198.754L429.385 123.7C428.497 120.98 429.385 118.287 431.435 117.527L523.336 83.807C519.749 85.607 515.712 111.407 524.845 139.367C533.977 167.314 552.948 187.034 557.052 186.82Z" fill="#623241"/>
</g>
<mask id="mask10_114_1978" style="mask-type:luminance" maskUnits="userSpaceOnUse" x="0" y="0" width="707" height="472">
<path d="M0 471.06H706.589V0H0V471.06Z" fill="white"/>
</mask>
<g mask="url(#mask10_114_1978)">
<path d="M555.545 131.273C564.853 159.713 565.528 184.58 557.052 186.82L556.597 186.913C548.075 188.3 533.991 167.3 524.847 139.367C515.699 111.42 514.889 86.9133 522.896 83.9533L523.336 83.8066C531.813 81.58 546.235 102.82 555.545 131.273Z" fill="white"/>
</g>
<mask id="mask11_114_1978" style="mask-type:luminance" maskUnits="userSpaceOnUse" x="0" y="0" width="707" height="472">
<path d="M0 471.06H706.589V0H0V471.06Z" fill="white"/>
</mask>
<g mask="url(#mask11_114_1978)">
<path d="M334.983 307.98C314.405 310.194 302.539 308.14 302.539 308.14C302.539 308.14 307.531 406.38 300.444 409.794C300.033 409.994 299.545 410.18 298.993 410.367C290.104 413.287 264.561 413.727 263.931 408.874C263.823 408.047 263.784 403.554 263.804 396.567C263.896 360.007 265.528 255.34 267.023 253.9L267.228 253.7C268.609 252.367 270.139 250.847 270.705 250.287C270.852 250.127 270.935 250.047 270.935 250.047C270.935 250.047 297.367 257.554 304.752 263.567C314.051 271.14 324.789 281.354 332.604 279.46C340.417 277.58 346.104 214.874 346.104 214.874L353.987 215.474C353.987 215.474 363.247 302.487 334.983 307.98Z" fill="#2B45A2"/>
</g>
<mask id="mask12_114_1978" style="mask-type:luminance" maskUnits="userSpaceOnUse" x="0" y="0" width="707" height="472">
<path d="M0 471.06H706.589V0H0V471.06Z" fill="white"/>
</mask>
<g mask="url(#mask12_114_1978)">
<path d="M250.876 396.567C250.627 405.487 250.333 411.1 250.007 411.46C248.477 413.087 226.025 413.007 216.521 411.553C215.168 411.353 214.079 411.113 213.347 410.847C207.485 408.753 212.721 310.447 212.721 310.447C212.721 310.447 205.987 324.78 201.625 331.393C197.259 338.007 188.404 416.407 188.404 416.407H180.149C180.149 416.407 179.471 342.207 179.461 332.14C179.452 322.073 192.604 274.86 197.561 269.313C202.519 263.767 244.136 250.953 244.136 250.953L250.671 256.14L250.68 256.153C252.141 259.14 251.936 358.273 250.876 396.567Z" fill="#2B45A2"/>
</g>
<mask id="mask13_114_1978" style="mask-type:luminance" maskUnits="userSpaceOnUse" x="0" y="0" width="707" height="472">
<path d="M0 471.06H706.589V0H0V471.06Z" fill="white"/>
</mask>
<g mask="url(#mask13_114_1978)">
<path d="M267.023 253.9C265.528 255.34 263.896 360.006 263.804 396.566H250.876C251.936 358.273 252.141 259.14 250.68 256.153C254.153 258.393 257.963 260.406 259.232 260.086C260.668 259.713 264.209 256.566 267.023 253.9Z" fill="white"/>
</g>
<mask id="mask14_114_1978" style="mask-type:luminance" maskUnits="userSpaceOnUse" x="0" y="0" width="707" height="472">
<path d="M0 471.06H706.589V0H0V471.06Z" fill="white"/>
</mask>
<g mask="url(#mask14_114_1978)">
<path d="M346.139 214.887C345.873 214.687 339.265 204.26 342.071 201.58C344.876 198.9 347.371 204.433 348.799 207.38C349.936 209.727 356.411 206.94 356.473 208.06C356.536 209.194 354.02 215.487 354.02 215.487L346.139 214.887Z" fill="#F8A379"/>
</g>
<mask id="mask15_114_1978" style="mask-type:luminance" maskUnits="userSpaceOnUse" x="0" y="0" width="707" height="472">
<path d="M0 471.06H706.589V0H0V471.06Z" fill="white"/>
</mask>
<g mask="url(#mask15_114_1978)">
<path d="M188.405 416.407C188.405 416.407 193.207 419.18 193.58 421.86C193.955 424.553 188.821 422.393 188.821 422.393C188.821 422.393 190.609 427.847 189.216 429.167C187.029 431.22 179.552 431.473 178.18 428.233C176.808 424.98 180.151 416.407 180.151 416.407H188.405Z" fill="#F8A379"/>
</g>
<mask id="mask16_114_1978" style="mask-type:luminance" maskUnits="userSpaceOnUse" x="0" y="0" width="707" height="472">
<path d="M0 471.06H706.589V0H0V471.06Z" fill="white"/>
</mask>
<g mask="url(#mask16_114_1978)">
<path d="M249.963 323.753L248.424 326.1C247.217 327.78 245.757 329.607 244.385 331.127C243.579 331.9 242.617 332.927 241.792 333.673C241.255 334.127 240.204 335.06 239.667 335.513C227.579 345.327 212.311 350.607 197.943 355.62C189.449 358.767 172.116 363.66 167.671 370.633C167.671 370.633 154.387 380.94 152.628 380.113C150.869 379.287 151.837 359.553 151.837 359.553C153.009 358.033 154.337 356.607 155.759 355.327C156.619 354.647 157.639 353.74 158.519 353.167C168.941 346.047 181.937 343.62 193.483 340.58C206.075 337.393 218.548 334.46 229.732 327.993C233.699 325.673 237.059 323.047 239.945 319.647C250.944 305.953 254.544 287.313 256.327 270.06C256.615 266.793 256.721 262.767 256.765 259.527C256.765 259.527 258.608 260.18 259.232 260.087C259.864 259.98 261.433 258.78 261.433 258.78C262.653 279.7 261.035 305.34 249.963 323.753Z" fill="#73B32D"/>
</g>
<mask id="mask17_114_1978" style="mask-type:luminance" maskUnits="userSpaceOnUse" x="0" y="0" width="707" height="472">
<path d="M0 471.06H706.589V0H0V471.06Z" fill="white"/>
</mask>
<g mask="url(#mask17_114_1978)">
<path d="M547.284 140.154C546.525 141.594 547.191 144.46 547.609 145.913C547.756 146.42 547.616 146.9 547.291 147.02L541.013 149.3C540.688 149.407 540.283 149.127 540.084 148.634C539.516 147.234 538.272 144.58 536.8 143.954C535.697 143.487 532.964 140.474 531.611 136.127C530.849 133.674 530.527 130.794 531.181 127.7C531.753 124.98 533.837 123.14 536.215 122.607H536.217L536.511 122.54H536.512C538.256 122.234 540.129 122.634 541.663 123.9C543.904 125.74 545.375 127.98 546.304 130.22C548.153 134.647 547.873 139.034 547.284 140.154Z" fill="#F9E008"/>
</g>
<mask id="mask18_114_1978" style="mask-type:luminance" maskUnits="userSpaceOnUse" x="0" y="0" width="707" height="472">
<path d="M0 471.06H706.589V0H0V471.06Z" fill="white"/>
</mask>
<g mask="url(#mask18_114_1978)">
<path d="M541.443 149.113C541.152 149.113 540.836 148.833 540.668 148.42C540.1 147.02 538.856 144.367 537.384 143.74C535.66 143.007 529.949 136.087 531.765 127.487C532.201 125.407 533.517 123.847 535.175 122.98C535.273 122.967 535.371 122.94 535.469 122.927C533.944 123.82 532.747 125.313 532.335 127.273C530.52 135.873 536.231 142.793 537.955 143.527C539.428 144.167 540.669 146.82 541.239 148.22C541.407 148.633 541.724 148.9 542.015 148.9C542.061 148.9 542.107 148.9 542.152 148.873L542.051 148.913C542.045 148.913 542.04 148.913 542.035 148.927L541.596 149.087C541.547 149.1 541.495 149.113 541.443 149.113Z" fill="#F9ED3C"/>
</g>
<mask id="mask19_114_1978" style="mask-type:luminance" maskUnits="userSpaceOnUse" x="0" y="0" width="707" height="472">
<path d="M0 471.06H706.589V0H0V471.06Z" fill="white"/>
</mask>
<g mask="url(#mask19_114_1978)">
<path d="M547.297 147.02C547.421 146.967 547.517 146.873 547.581 146.727C547.521 146.86 547.432 146.953 547.319 147.007L547.297 147.02ZM547.52 139.447C547.909 137.727 547.879 133.993 546.304 130.22C546.087 129.687 545.839 129.167 545.559 128.647C547.863 132.913 547.964 137.487 547.52 139.447ZM545.557 128.647C545.539 128.62 545.521 128.58 545.503 128.553C545.521 128.58 545.54 128.62 545.557 128.647ZM545.325 128.233C545.317 128.22 545.309 128.207 545.301 128.193C545.311 128.207 545.317 128.22 545.325 128.233ZM545.288 128.167C545.277 128.153 545.265 128.127 545.253 128.113C545.265 128.127 545.276 128.153 545.288 128.167ZM545.196 128.007C545.184 127.993 545.173 127.967 545.161 127.953C545.173 127.98 545.184 127.993 545.196 128.007ZM545.103 127.86C545.092 127.833 545.079 127.82 545.067 127.807C545.08 127.82 545.091 127.833 545.103 127.86ZM545.048 127.767C545.04 127.753 545.033 127.74 545.025 127.727C545.032 127.74 545.04 127.753 545.048 127.767ZM544.753 127.313C544.745 127.3 544.736 127.287 544.727 127.273C544.736 127.287 544.744 127.3 544.753 127.313ZM544.608 127.1C544.588 127.073 544.568 127.047 544.547 127.007C544.567 127.047 544.588 127.073 544.608 127.1ZM544.547 127.007C544.537 126.993 544.528 126.98 544.517 126.967C544.527 126.98 544.537 126.993 544.547 127.007ZM542.067 124.233C542.055 124.233 542.043 124.22 542.031 124.207C542.044 124.22 542.055 124.233 542.067 124.233ZM541.911 124.1C541.901 124.1 541.891 124.087 541.881 124.073C541.892 124.087 541.901 124.1 541.911 124.1ZM535.239 122.9C535.556 122.78 535.884 122.673 536.216 122.607H536.215C535.883 122.673 535.556 122.78 535.239 122.9ZM536.221 122.607C536.315 122.58 536.409 122.567 536.504 122.54L536.221 122.607Z" fill="#FBCE4F"/>
</g>
<mask id="mask20_114_1978" style="mask-type:luminance" maskUnits="userSpaceOnUse" x="0" y="0" width="707" height="472">
<path d="M0 471.06H706.589V0H0V471.06Z" fill="white"/>
</mask>
<g mask="url(#mask20_114_1978)">
<path d="M546.228 147.407C546.545 147.273 546.679 146.793 546.535 146.3C546.116 144.847 545.451 141.98 546.209 140.54C547.097 138.86 547.283 129.793 540.588 124.287C539.384 123.287 537.968 122.833 536.572 122.833C536.201 122.833 535.833 122.86 535.469 122.927C535.48 122.927 535.491 122.913 535.501 122.913L535.208 122.967H535.207C535.196 122.98 535.185 122.98 535.175 122.98C535.073 123.007 534.972 123.033 534.872 123.06C534.967 123.02 535.061 122.98 535.157 122.94C535.159 122.94 535.16 122.94 535.16 122.94C535.172 122.927 535.184 122.927 535.197 122.913C535.201 122.913 535.207 122.913 535.211 122.913C535.22 122.913 535.229 122.913 535.239 122.9C535.556 122.78 535.883 122.673 536.215 122.607H536.216C536.217 122.607 536.22 122.607 536.221 122.607L536.504 122.54C536.507 122.54 536.509 122.54 536.512 122.54C536.885 122.473 537.264 122.447 537.645 122.447C538.965 122.447 540.301 122.847 541.463 123.74C541.509 123.767 541.557 123.807 541.604 123.847C541.605 123.847 541.605 123.847 541.607 123.847C541.625 123.86 541.644 123.873 541.663 123.9C541.685 123.913 541.708 123.927 541.731 123.953C541.737 123.953 541.745 123.967 541.753 123.967C541.771 123.98 541.789 123.993 541.807 124.02C541.815 124.02 541.823 124.033 541.831 124.033C541.848 124.047 541.865 124.06 541.881 124.073C541.891 124.087 541.901 124.1 541.911 124.1C541.924 124.113 541.937 124.127 541.949 124.14C541.965 124.153 541.981 124.167 541.997 124.18C542.008 124.18 542.02 124.193 542.031 124.207C542.043 124.22 542.055 124.233 542.067 124.233C542.075 124.247 542.084 124.247 542.091 124.26C542.115 124.287 542.139 124.3 542.163 124.327C542.168 124.327 542.172 124.327 542.177 124.34C542.192 124.353 542.205 124.367 542.22 124.38C542.224 124.38 542.229 124.38 542.233 124.38C542.263 124.407 542.291 124.433 542.32 124.46C542.321 124.473 542.321 124.473 542.323 124.473C542.339 124.487 542.355 124.5 542.369 124.513C542.371 124.513 542.373 124.513 542.375 124.513C542.421 124.567 542.469 124.607 542.516 124.647C543.041 125.153 543.519 125.673 543.949 126.22C543.951 126.22 543.951 126.22 543.951 126.22C543.989 126.26 544.028 126.313 544.067 126.367C544.104 126.407 544.141 126.46 544.177 126.5C544.18 126.513 544.183 126.513 544.184 126.513C544.22 126.567 544.256 126.607 544.291 126.66C544.292 126.66 544.293 126.66 544.296 126.66C544.331 126.713 544.364 126.753 544.399 126.807C544.401 126.807 544.405 126.807 544.408 126.82C544.44 126.86 544.472 126.9 544.504 126.953C544.508 126.953 544.513 126.967 544.517 126.967C544.528 126.98 544.537 126.993 544.547 127.007C544.568 127.047 544.588 127.073 544.608 127.1C544.613 127.1 544.619 127.113 544.623 127.127C544.653 127.167 544.683 127.207 544.712 127.247C544.717 127.26 544.721 127.26 544.727 127.273C544.736 127.287 544.745 127.3 544.753 127.313C544.756 127.313 544.76 127.327 544.764 127.327C544.78 127.353 544.796 127.38 544.813 127.407C544.817 127.407 544.823 127.42 544.828 127.42C544.836 127.433 544.845 127.447 544.853 127.46C544.859 127.473 544.864 127.487 544.869 127.487C544.884 127.513 544.897 127.527 544.912 127.553C544.917 127.567 544.921 127.567 544.927 127.58C544.936 127.593 544.944 127.607 544.952 127.62C544.956 127.62 544.96 127.633 544.964 127.633C544.979 127.66 544.993 127.687 545.008 127.7C545.013 127.713 545.019 127.727 545.025 127.727C545.033 127.74 545.04 127.753 545.048 127.767C545.055 127.78 545.061 127.793 545.067 127.807C545.079 127.82 545.092 127.833 545.103 127.86C545.109 127.873 545.115 127.873 545.12 127.887C545.127 127.9 545.135 127.913 545.143 127.927C545.148 127.927 545.155 127.94 545.161 127.953C545.173 127.967 545.184 127.993 545.196 128.007C545.201 128.02 545.207 128.033 545.212 128.033C545.22 128.047 545.227 128.06 545.235 128.073C545.241 128.087 545.248 128.1 545.253 128.113C545.265 128.127 545.277 128.153 545.288 128.167C545.292 128.18 545.297 128.18 545.301 128.193C545.309 128.207 545.317 128.22 545.325 128.233C545.329 128.233 545.332 128.247 545.335 128.247C545.349 128.273 545.364 128.3 545.379 128.327C545.383 128.327 545.387 128.34 545.391 128.34C545.399 128.367 545.407 128.38 545.415 128.393C545.416 128.393 545.419 128.393 545.42 128.393C545.436 128.433 545.453 128.46 545.469 128.487C545.471 128.487 545.473 128.5 545.476 128.5C545.484 128.513 545.493 128.527 545.501 128.54C545.503 128.54 545.503 128.54 545.503 128.553C545.521 128.58 545.539 128.62 545.557 128.647H545.559C545.839 129.167 546.087 129.687 546.304 130.22C547.879 133.993 547.909 137.727 547.52 139.447C547.519 139.46 547.517 139.46 547.516 139.473C547.515 139.473 547.513 139.473 547.513 139.473C547.512 139.487 547.511 139.487 547.509 139.5C547.507 139.5 547.504 139.513 547.501 139.527C547.437 139.793 547.363 140.007 547.284 140.153C547.035 140.62 546.939 141.247 546.937 141.927C546.935 143.313 547.328 144.927 547.609 145.913C547.619 145.94 547.627 145.98 547.635 146.007C547.693 146.287 547.671 146.54 547.581 146.727C547.517 146.873 547.421 146.967 547.297 147.02L546.228 147.407Z" fill="#F9B00B"/>
</g>
<mask id="mask21_114_1978" style="mask-type:luminance" maskUnits="userSpaceOnUse" x="0" y="0" width="707" height="472">
<path d="M0 471.06H706.589V0H0V471.06Z" fill="white"/>
</mask>
<g mask="url(#mask21_114_1978)">
<path d="M535.175 122.98C535.185 122.98 535.196 122.98 535.207 122.967H535.208L535.501 122.913C535.491 122.913 535.48 122.927 535.469 122.927C535.371 122.94 535.273 122.967 535.175 122.98Z" fill="#FABA16"/>
</g>
<mask id="mask22_114_1978" style="mask-type:luminance" maskUnits="userSpaceOnUse" x="0" y="0" width="707" height="472">
<path d="M0 471.06H706.589V0H0V471.06Z" fill="white"/>
</mask>
<g mask="url(#mask22_114_1978)">
<path d="M542.875 148.62L543.224 148.487H543.223L542.875 148.62Z" fill="white"/>
</g>
<mask id="mask23_114_1978" style="mask-type:luminance" maskUnits="userSpaceOnUse" x="0" y="0" width="707" height="472">
<path d="M0 471.06H706.589V0H0V471.06Z" fill="white"/>
</mask>
<g mask="url(#mask23_114_1978)">
<path d="M542.875 148.62L541.056 143.487C540.447 141.767 539.857 140.207 539.087 138.98C538.856 139.073 538.608 139.127 538.353 139.127C538.345 139.127 538.337 139.127 538.329 139.127C537.856 139.127 537.447 138.954 537.113 138.594C536.656 138.114 536.344 137.194 536.608 136.594C536.741 136.287 536.96 136.153 537.213 136.153C537.559 136.153 537.968 136.393 538.313 136.713C538.603 136.993 538.872 137.3 539.124 137.633C539.363 137.433 539.564 137.18 539.712 136.86L539.768 136.727C539.339 136.314 538.952 135.794 538.649 135.207C538.308 134.527 538.128 133.873 538.132 133.313C538.136 132.54 538.511 131.98 539.009 131.98C539.024 131.98 539.039 131.994 539.053 131.994C539.788 132.034 540.412 133.1 540.647 134.14C540.82 134.887 540.859 135.66 540.771 136.367C541.131 136.567 541.501 136.674 541.851 136.674C541.868 136.674 541.885 136.674 541.904 136.674C541.876 136.527 541.849 136.38 541.824 136.22C541.759 135.86 541.672 135.353 541.716 134.887C541.772 134.3 542.035 133.887 542.403 133.807C542.443 133.807 542.484 133.794 542.524 133.794C542.797 133.794 543.091 133.98 543.349 134.3C543.692 134.727 543.915 135.354 543.917 135.874C543.92 136.634 543.585 137.247 542.995 137.58L542.869 137.647C543.516 140.967 544.409 144.3 545.532 147.594L544.812 147.847C543.681 144.527 542.776 141.154 542.117 137.807C542.103 137.807 542.088 137.807 542.075 137.807C541.581 137.807 541.053 137.634 540.548 137.327L540.428 137.633C540.255 138.007 540.023 138.327 539.751 138.567C540.649 140.06 541.271 141.82 541.767 143.22L543.589 148.353L543.224 148.487L542.875 148.62ZM537.427 137.287C537.409 137.287 537.392 137.3 537.379 137.3L537.331 137.34L537.484 137.753C537.668 137.953 537.927 137.994 538.119 137.994C538.127 137.994 538.133 137.994 538.14 137.994L538.345 137.98C538.231 137.847 538.112 137.727 537.987 137.607C537.785 137.407 537.557 137.287 537.427 137.287ZM542.713 134.94H542.699C542.612 134.967 542.54 135.113 542.523 135.313C542.499 135.567 542.548 135.873 542.611 136.233L542.647 136.447C542.937 136.247 543.107 135.927 543.107 135.594C543.105 135.434 543.019 135.207 542.901 135.047L542.713 134.94ZM539.225 133.113L539.164 133.127C539.04 133.18 538.944 133.367 538.943 133.607C538.94 133.994 539.12 134.42 539.269 134.713C539.469 135.113 539.716 135.447 539.989 135.74C540.032 135.247 539.996 134.727 539.877 134.207C539.76 133.7 539.471 133.14 539.225 133.113Z" fill="#FEFCD2"/>
</g>
<mask id="mask24_114_1978" style="mask-type:luminance" maskUnits="userSpaceOnUse" x="0" y="0" width="707" height="472">
<path d="M0 471.06H706.589V0H0V471.06Z" fill="white"/>
</mask>
<g mask="url(#mask24_114_1978)">
<path d="M541.784 151.327L548.121 149.033C548.489 148.9 548.629 148.327 548.433 147.753C548.237 147.193 547.78 146.833 547.412 146.967L541.075 149.273C540.707 149.407 540.567 149.967 540.763 150.54C540.959 151.1 541.416 151.46 541.784 151.327Z" fill="#B1B1B0"/>
</g>
<mask id="mask25_114_1978" style="mask-type:luminance" maskUnits="userSpaceOnUse" x="0" y="0" width="707" height="472">
<path d="M0 471.06H706.589V0H0V471.06Z" fill="white"/>
</mask>
<g mask="url(#mask25_114_1978)">
<path d="M548.121 149.033L541.784 151.327C541.416 151.46 541.276 152.02 541.473 152.593C541.668 153.167 542.125 153.513 542.495 153.38L548.831 151.073C549.2 150.94 549.339 150.38 549.143 149.807C548.947 149.247 548.489 148.9 548.121 149.033Z" fill="#B1B1B0"/>
</g>
<mask id="mask26_114_1978" style="mask-type:luminance" maskUnits="userSpaceOnUse" x="0" y="0" width="707" height="472">
<path d="M0 471.06H706.589V0H0V471.06Z" fill="white"/>
</mask>
<g mask="url(#mask26_114_1978)">
<path d="M548.831 151.073C549.027 151.647 549.055 152.207 548.943 152.673C548.829 153.127 548.576 153.487 548.208 153.62L544.492 154.967C543.755 155.233 542.841 154.527 542.448 153.393L548.831 151.073Z" fill="#B1B1B0"/>
</g>
<mask id="mask27_114_1978" style="mask-type:luminance" maskUnits="userSpaceOnUse" x="0" y="0" width="707" height="472">
<path d="M0 471.06H706.589V0H0V471.06Z" fill="white"/>
</mask>
<g mask="url(#mask27_114_1978)">
<path d="M544.417 154.994C544.811 156.127 545.724 156.833 546.461 156.567L547.685 156.113C548.421 155.847 548.701 154.713 548.308 153.58L544.417 154.994Z" fill="#414147"/>
</g>
<mask id="mask28_114_1978" style="mask-type:luminance" maskUnits="userSpaceOnUse" x="0" y="0" width="707" height="472">
<path d="M0 471.06H706.589V0H0V471.06Z" fill="white"/>
</mask>
<g mask="url(#mask28_114_1978)">
<path d="M543.529 150.687L542.76 150.967C542.393 151.1 541.936 150.753 541.739 150.18C541.641 149.9 541.628 149.62 541.683 149.393C541.74 149.153 541.868 148.98 542.051 148.913L542.819 148.633C542.633 148.7 542.507 148.873 542.451 149.113C542.395 149.34 542.409 149.62 542.507 149.9C542.703 150.473 543.16 150.82 543.529 150.687Z" fill="#B1B1B0"/>
</g>
<mask id="mask29_114_1978" style="mask-type:luminance" maskUnits="userSpaceOnUse" x="0" y="0" width="707" height="472">
<path d="M0 471.06H706.589V0H0V471.06Z" fill="white"/>
</mask>
<g mask="url(#mask29_114_1978)">
<path d="M548.433 147.753C548.531 148.046 548.545 148.326 548.488 148.553C548.433 148.78 548.305 148.966 548.121 149.033L545.929 149.82C546.113 149.753 546.241 149.58 546.297 149.353C546.353 149.113 546.34 148.833 546.241 148.553C546.045 147.98 545.588 147.633 545.22 147.766L547.412 146.966C547.78 146.833 548.237 147.193 548.433 147.753Z" fill="#959494"/>
</g>
<mask id="mask30_114_1978" style="mask-type:luminance" maskUnits="userSpaceOnUse" x="0" y="0" width="707" height="472">
<path d="M0 471.06H706.589V0H0V471.06Z" fill="white"/>
</mask>
<g mask="url(#mask30_114_1978)">
<path d="M549.143 149.807C549.241 150.1 549.255 150.38 549.199 150.607C549.143 150.834 549.015 151.02 548.831 151.087L546.64 151.874C546.824 151.807 546.951 151.634 547.007 151.407C547.064 151.167 547.049 150.887 546.951 150.607C546.756 150.034 546.297 149.687 545.929 149.82L548.121 149.033C548.489 148.9 548.947 149.247 549.143 149.807Z" fill="#959494"/>
</g>
<mask id="mask31_114_1978" style="mask-type:luminance" maskUnits="userSpaceOnUse" x="0" y="0" width="707" height="472">
<path d="M0 471.06H706.589V0H0V471.06Z" fill="white"/>
</mask>
<g mask="url(#mask31_114_1978)">
<path d="M548.831 151.073C549.027 151.647 549.055 152.22 548.943 152.673C548.829 153.127 548.576 153.487 548.208 153.62L547.349 153.927C547.533 153.86 547.661 153.687 547.717 153.46C547.773 153.233 547.759 152.94 547.661 152.66C547.465 152.1 547.008 151.74 546.64 151.873L548.831 151.073Z" fill="#959494"/>
</g>
<mask id="mask32_114_1978" style="mask-type:luminance" maskUnits="userSpaceOnUse" x="0" y="0" width="707" height="472">
<path d="M0 471.06H706.589V0H0V471.06Z" fill="white"/>
</mask>
<g mask="url(#mask32_114_1978)">
<path d="M542.599 150.994C542.267 150.994 541.908 150.673 541.739 150.18C541.677 150.007 541.649 149.834 541.651 149.66C541.652 149.567 541.663 149.474 541.683 149.394C541.74 149.154 541.868 148.98 542.051 148.913L542.819 148.633C542.633 148.7 542.507 148.873 542.451 149.113C542.429 149.193 542.419 149.287 542.417 149.394C542.417 149.554 542.445 149.727 542.507 149.9C542.675 150.393 543.035 150.713 543.365 150.713C543.421 150.713 543.476 150.714 543.529 150.687L542.76 150.967C542.708 150.993 542.653 150.994 542.599 150.994Z" fill="#CFCECD"/>
</g>
<mask id="mask33_114_1978" style="mask-type:luminance" maskUnits="userSpaceOnUse" x="0" y="0" width="707" height="472">
<path d="M0 471.06H706.589V0H0V471.06Z" fill="white"/>
</mask>
<g mask="url(#mask33_114_1978)">
<path d="M543.489 153.02L544.232 152.753C544.233 152.74 544.233 152.74 544.235 152.74L543.636 152.967L543.492 153.02C543.491 153.02 543.489 153.02 543.489 153.02Z" fill="white"/>
</g>
<mask id="mask34_114_1978" style="mask-type:luminance" maskUnits="userSpaceOnUse" x="0" y="0" width="707" height="472">
<path d="M0 471.06H706.589V0H0V471.06Z" fill="white"/>
</mask>
<g mask="url(#mask34_114_1978)">
<path d="M543.328 153.046C542.997 153.046 542.639 152.713 542.471 152.233C542.372 151.953 542.359 151.66 542.415 151.433C542.471 151.206 542.599 151.033 542.781 150.966L543.549 150.686C543.364 150.753 543.239 150.926 543.183 151.153C543.125 151.38 543.14 151.673 543.237 151.953C543.405 152.433 543.765 152.766 544.097 152.766C544.143 152.766 544.188 152.766 544.232 152.753L543.489 153.02C543.437 153.033 543.383 153.046 543.328 153.046Z" fill="#CFCECD"/>
</g>
<mask id="mask35_114_1978" style="mask-type:luminance" maskUnits="userSpaceOnUse" x="0" y="0" width="707" height="472">
<path d="M0 471.06H706.589V0H0V471.06Z" fill="white"/>
</mask>
<g mask="url(#mask35_114_1978)">
<path d="M543.636 152.967L544.235 152.74C544.243 152.74 544.251 152.74 544.259 152.74L543.971 152.847L543.636 152.967Z" fill="#CFCECD"/>
</g>
<mask id="mask36_114_1978" style="mask-type:luminance" maskUnits="userSpaceOnUse" x="0" y="0" width="707" height="472">
<path d="M0 471.06H706.589V0H0V471.06Z" fill="white"/>
</mask>
<g mask="url(#mask36_114_1978)">
<path d="M544.519 154.927C544.188 154.927 543.828 154.593 543.66 154.113C543.561 153.833 543.548 153.54 543.604 153.313C543.661 153.087 543.787 152.913 543.971 152.847L544.26 152.74C544.26 152.74 544.26 152.74 544.259 152.74L544.739 152.567C544.555 152.633 544.428 152.807 544.372 153.033C544.315 153.26 544.329 153.553 544.427 153.833C544.595 154.313 544.955 154.647 545.285 154.647C545.332 154.647 545.377 154.633 545.421 154.633L544.651 154.9C544.608 154.913 544.563 154.927 544.519 154.927Z" fill="#CFCECD"/>
</g>
<mask id="mask37_114_1978" style="mask-type:luminance" maskUnits="userSpaceOnUse" x="0" y="0" width="707" height="472">
<path d="M0 471.06H706.589V0H0V471.06Z" fill="white"/>
</mask>
<g mask="url(#mask37_114_1978)">
<path d="M544.651 154.9L545.421 154.633C545.431 154.62 545.44 154.62 545.448 154.62L544.681 154.9C544.671 154.9 544.661 154.9 544.651 154.9Z" fill="#84868A"/>
</g>
<mask id="mask38_114_1978" style="mask-type:luminance" maskUnits="userSpaceOnUse" x="0" y="0" width="707" height="472">
<path d="M0 471.06H706.589V0H0V471.06Z" fill="white"/>
</mask>
<g mask="url(#mask38_114_1978)">
<path d="M543.971 152.847L544.259 152.74C544.26 152.74 544.26 152.74 544.26 152.74L543.971 152.847Z" fill="#E3E2E0"/>
</g>
<mask id="mask39_114_1978" style="mask-type:luminance" maskUnits="userSpaceOnUse" x="0" y="0" width="707" height="472">
<path d="M0 471.06H706.589V0H0V471.06Z" fill="white"/>
</mask>
<g mask="url(#mask39_114_1978)">
<path d="M541.784 151.327C543.843 150.407 545.959 149.633 548.121 149.033C546.063 149.94 543.948 150.713 541.784 151.327Z" fill="#959494"/>
</g>
<mask id="mask40_114_1978" style="mask-type:luminance" maskUnits="userSpaceOnUse" x="0" y="0" width="707" height="472">
<path d="M0 471.06H706.589V0H0V471.06Z" fill="white"/>
</mask>
<g mask="url(#mask40_114_1978)">
<path d="M542.495 153.38C544.553 152.46 546.668 151.7 548.832 151.073C546.773 151.993 544.657 152.767 542.495 153.38Z" fill="#959494"/>
</g>
<mask id="mask41_114_1978" style="mask-type:luminance" maskUnits="userSpaceOnUse" x="0" y="0" width="707" height="472">
<path d="M0 471.06H706.589V0H0V471.06Z" fill="white"/>
</mask>
<g mask="url(#mask41_114_1978)">
<path d="M544.492 154.967C545.709 154.353 546.987 153.887 548.308 153.58C547.091 154.193 545.813 154.66 544.492 154.967Z" fill="#959494"/>
</g>
<mask id="mask42_114_1978" style="mask-type:luminance" maskUnits="userSpaceOnUse" x="0" y="0" width="707" height="472">
<path d="M0 471.06H706.589V0H0V471.06Z" fill="white"/>
</mask>
<g mask="url(#mask42_114_1978)">
<path d="M541.075 149.273C543.133 148.353 545.248 147.593 547.412 146.98C545.353 147.887 543.237 148.66 541.075 149.273Z" fill="#959494"/>
</g>
<mask id="mask43_114_1978" style="mask-type:luminance" maskUnits="userSpaceOnUse" x="0" y="0" width="707" height="472">
<path d="M0 471.06H706.589V0H0V471.06Z" fill="white"/>
</mask>
<g mask="url(#mask43_114_1978)">
<path d="M534.828 120.673C534.727 120.713 534.601 120.62 534.547 120.46L532.16 113.553C532.107 113.393 532.145 113.233 532.247 113.207C532.348 113.167 532.475 113.26 532.528 113.42L534.915 120.327C534.969 120.487 534.931 120.647 534.828 120.673Z" fill="#F9E008"/>
</g>
<mask id="mask44_114_1978" style="mask-type:luminance" maskUnits="userSpaceOnUse" x="0" y="0" width="707" height="472">
<path d="M0 471.06H706.589V0H0V471.06Z" fill="white"/>
</mask>
<g mask="url(#mask44_114_1978)">
<path d="M528.777 125.62L528.619 125.58L523.759 121.833L523.88 121.34L528.74 125.087C528.851 125.167 528.913 125.353 528.879 125.487L528.777 125.62Z" fill="#F9E008"/>
</g>
<mask id="mask45_114_1978" style="mask-type:luminance" maskUnits="userSpaceOnUse" x="0" y="0" width="707" height="472">
<path d="M0 471.06H706.589V0H0V471.06Z" fill="white"/>
</mask>
<g mask="url(#mask45_114_1978)">
<path d="M530.429 137.207L525.941 138.833C525.84 138.86 525.713 138.767 525.66 138.607C525.605 138.46 525.644 138.3 525.745 138.26L530.233 136.633C530.335 136.607 530.461 136.7 530.515 136.86C530.569 137.007 530.531 137.167 530.429 137.207Z" fill="#F9E008"/>
</g>
<mask id="mask46_114_1978" style="mask-type:luminance" maskUnits="userSpaceOnUse" x="0" y="0" width="707" height="472">
<path d="M0 471.06H706.589V0H0V471.06Z" fill="white"/>
</mask>
<g mask="url(#mask46_114_1978)">
<path d="M542.263 120.74L542.104 120.7C541.995 120.62 541.932 120.433 541.965 120.3L543.452 114.26C543.485 114.127 543.601 114.087 543.712 114.167C543.821 114.26 543.884 114.433 543.851 114.567L542.365 120.607L542.263 120.74Z" fill="#F9E008"/>
</g>
<mask id="mask47_114_1978" style="mask-type:luminance" maskUnits="userSpaceOnUse" x="0" y="0" width="707" height="472">
<path d="M0 471.06H706.589V0H0V471.06Z" fill="white"/>
</mask>
<g mask="url(#mask47_114_1978)">
<path d="M552.583 129.194L548.095 130.82C547.993 130.847 547.867 130.754 547.813 130.594C547.759 130.447 547.797 130.287 547.899 130.247L552.387 128.62C552.488 128.594 552.615 128.687 552.668 128.847C552.723 128.993 552.684 129.154 552.583 129.194Z" fill="#F9E008"/>
</g>
<mask id="mask48_114_1978" style="mask-type:luminance" maskUnits="userSpaceOnUse" x="0" y="0" width="707" height="472">
<path d="M0 471.06H706.589V0H0V471.06Z" fill="white"/>
</mask>
<g mask="url(#mask48_114_1978)">
<path d="M513.727 71.9533C503.829 74.1933 502.016 76.0066 499.78 85.8999C497.544 76.0066 495.731 74.1933 485.832 71.9533C495.731 69.7133 497.544 67.9 499.78 58.0067C502.016 67.9 503.829 69.7133 513.727 71.9533Z" fill="white"/>
</g>
<mask id="mask49_114_1978" style="mask-type:luminance" maskUnits="userSpaceOnUse" x="0" y="0" width="707" height="472">
<path d="M0 471.06H706.589V0H0V471.06Z" fill="white"/>
</mask>
<g mask="url(#mask49_114_1978)">
<path d="M444.485 128.234C439.005 129.46 438.001 130.474 436.764 135.954C435.525 130.474 434.521 129.46 429.043 128.234C434.521 126.994 435.525 125.98 436.764 120.5C438.001 125.98 439.005 126.994 444.485 128.234Z" fill="white"/>
</g>
<mask id="mask50_114_1978" style="mask-type:luminance" maskUnits="userSpaceOnUse" x="0" y="0" width="707" height="472">
<path d="M0 471.06H706.589V0H0V471.06Z" fill="white"/>
</mask>
<g mask="url(#mask50_114_1978)">
<path d="M552.484 197.274C549.344 197.98 548.769 198.554 548.06 201.7C547.351 198.554 546.776 197.98 543.636 197.274C546.776 196.567 547.351 195.98 548.06 192.847C548.769 195.98 549.344 196.567 552.484 197.274Z" fill="white"/>
</g>
</svg>
