<svg width="707" height="472" viewBox="0 0 707 472" fill="none" xmlns="http://www.w3.org/2000/svg">
<mask id="mask0_114_2112" style="mask-type:luminance" maskUnits="userSpaceOnUse" x="0" y="0" width="707" height="472">
<path d="M0 471.06H706.587V0H0V471.06Z" fill="white"/>
</mask>
<g mask="url(#mask0_114_2112)">
<path d="M706.587 471.06H0V0.00683594H706.587V471.06Z" fill="#FFFBEB"/>
</g>
<mask id="mask1_114_2112" style="mask-type:luminance" maskUnits="userSpaceOnUse" x="0" y="0" width="707" height="472">
<path d="M0 471.06H706.587V0H0V471.06Z" fill="white"/>
</mask>
<g mask="url(#mask1_114_2112)">
<path d="M369.2 205.167C369.2 205.167 342.715 211.34 338.039 211.7L337.596 203.274C341.704 204.18 368.448 201.647 368.448 201.647L369.2 205.167Z" fill="#2B45A2"/>
</g>
<mask id="mask2_114_2112" style="mask-type:luminance" maskUnits="userSpaceOnUse" x="0" y="0" width="707" height="472">
<path d="M0 471.06H706.587V0H0V471.06Z" fill="white"/>
</mask>
<g mask="url(#mask2_114_2112)">
<path d="M368.447 201.646C368.447 201.646 369.031 197.753 370.108 197.993C371.185 198.233 370.747 200.553 370.747 200.553C370.747 200.553 372.821 199.153 373.659 199.673C374.497 200.193 375.735 203.633 373.3 204.273C370.865 204.9 369.2 205.167 369.2 205.167L368.447 201.646Z" fill="#F8A379"/>
</g>
<mask id="mask3_114_2112" style="mask-type:luminance" maskUnits="userSpaceOnUse" x="0" y="0" width="707" height="472">
<path d="M0 471.06H706.587V0H0V471.06Z" fill="white"/>
</mask>
<g mask="url(#mask3_114_2112)">
<path d="M277.959 477.047C279.24 477.1 280.788 476.14 281.416 474.9L525.173 -3.84662C525.8 -5.08661 525.28 -6.12662 523.987 -6.17996C522.707 -6.21994 521.16 -5.26001 520.533 -4.03333L276.776 474.727C276.148 475.967 276.677 477.007 277.959 477.047Z" fill="#2E3224"/>
</g>
<mask id="mask4_114_2112" style="mask-type:luminance" maskUnits="userSpaceOnUse" x="0" y="0" width="707" height="472">
<path d="M0 471.06H706.587V0H0V471.06Z" fill="white"/>
</mask>
<g mask="url(#mask4_114_2112)">
<path d="M232.645 477.06C233.927 477.1 235.475 476.14 236.103 474.913L480.8 -5.02023C481.426 -6.24689 480.893 -7.28668 479.613 -7.34C478.333 -7.39334 476.786 -6.43341 476.16 -5.19339L231.463 474.726C230.835 475.966 231.364 477.006 232.645 477.06Z" fill="#2E3224"/>
</g>
<mask id="mask5_114_2112" style="mask-type:luminance" maskUnits="userSpaceOnUse" x="0" y="0" width="707" height="472">
<path d="M0 471.06H706.587V0H0V471.06Z" fill="white"/>
</mask>
<g mask="url(#mask5_114_2112)">
<path d="M304.985 334.847L349.763 336.58L352.039 332.113L307.261 330.38L304.985 334.847Z" fill="#2E3224"/>
</g>
<mask id="mask6_114_2112" style="mask-type:luminance" maskUnits="userSpaceOnUse" x="0" y="0" width="707" height="472">
<path d="M0 471.06H706.587V0H0V471.06Z" fill="white"/>
</mask>
<g mask="url(#mask6_114_2112)">
<path d="M283.108 377.82L327.885 379.553L330.161 375.087L285.384 373.353L283.108 377.82Z" fill="#2E3224"/>
</g>
<mask id="mask7_114_2112" style="mask-type:luminance" maskUnits="userSpaceOnUse" x="0" y="0" width="707" height="472">
<path d="M0 471.06H706.587V0H0V471.06Z" fill="white"/>
</mask>
<g mask="url(#mask7_114_2112)">
<path d="M263.728 417.1L308.505 418.833L310.78 414.354L266.003 412.633L263.728 417.1Z" fill="#2E3224"/>
</g>
<mask id="mask8_114_2112" style="mask-type:luminance" maskUnits="userSpaceOnUse" x="0" y="0" width="707" height="472">
<path d="M0 471.06H706.587V0H0V471.06Z" fill="white"/>
</mask>
<g mask="url(#mask8_114_2112)">
<path d="M244.347 456.367L289.124 458.1L291.4 453.633L246.623 451.9L244.347 456.367Z" fill="#2E3224"/>
</g>
<mask id="mask9_114_2112" style="mask-type:luminance" maskUnits="userSpaceOnUse" x="0" y="0" width="707" height="472">
<path d="M0 471.06H706.587V0H0V471.06Z" fill="white"/>
</mask>
<g mask="url(#mask9_114_2112)">
<path d="M342.843 327.007C343.045 327.14 345.352 327.847 347.019 328.9C348.773 330.007 350.024 332.1 349.091 332.847C348.637 333.207 336.855 332.34 336.611 331.313C336.368 330.287 336.685 327.273 337.3 326.607C338.588 325.22 342.843 327.007 342.843 327.007Z" fill="#100F0D"/>
</g>
<mask id="mask10_114_2112" style="mask-type:luminance" maskUnits="userSpaceOnUse" x="0" y="0" width="707" height="472">
<path d="M0 471.06H706.587V0H0V471.06Z" fill="white"/>
</mask>
<g mask="url(#mask10_114_2112)">
<path d="M251.043 290.527C250.977 290.767 250.859 292.993 250.383 294.913C249.881 296.927 248.592 298.06 247.365 297.607C246.82 297.407 244.185 285.153 245.085 284.593C245.985 284.033 248.956 283.66 249.844 284.42C251.289 285.633 251.043 290.527 251.043 290.527Z" fill="#100F0D"/>
</g>
<mask id="mask11_114_2112" style="mask-type:luminance" maskUnits="userSpaceOnUse" x="0" y="0" width="707" height="472">
<path d="M0 471.06H706.587V0H0V471.06Z" fill="white"/>
</mask>
<g mask="url(#mask11_114_2112)">
<path d="M343.479 327.38C343.017 327.7 338.191 327.447 337.3 326.607C336.411 325.767 326.852 286.713 324.145 280.193C321.437 273.687 306.696 254.327 306.696 254.327C306.696 254.327 303.74 282.847 293.777 285.327C283.812 287.793 251.639 291.593 250.631 290.86C249.624 290.113 248.487 284.313 249.379 284.127C251.428 283.7 285.72 279.073 288.323 273.967C290.243 270.207 289.605 253.287 289.683 244.767C289.712 241.74 290.74 239.967 290.74 239.967L302.849 237.78L306.408 238.153L309.975 238.513L316.255 239.167C316.255 239.167 317.507 241.1 319.397 244.14C324.937 253.073 335.952 271.62 336.907 279.327C338.187 289.673 343.94 327.073 343.479 327.38Z" fill="#3C465B"/>
</g>
<mask id="mask12_114_2112" style="mask-type:luminance" maskUnits="userSpaceOnUse" x="0" y="0" width="707" height="472">
<path d="M0 471.06H706.587V0H0V471.06Z" fill="white"/>
</mask>
<g mask="url(#mask12_114_2112)">
<path d="M302.637 180.407C302.637 180.407 301.383 178.646 302.497 177.713C303.508 176.86 304.532 178.033 304.532 178.033C305.001 173.993 312.532 172.913 312.532 172.913C315.345 169.753 311.945 165.753 311.945 165.753C311.945 165.753 300.109 164.9 296.94 172.673C294.785 177.967 297.463 181.567 299.397 183.327C301.111 182.647 302.637 180.407 302.637 180.407Z" fill="#12110F"/>
</g>
<mask id="mask13_114_2112" style="mask-type:luminance" maskUnits="userSpaceOnUse" x="0" y="0" width="707" height="472">
<path d="M0 471.06H706.587V0H0V471.06Z" fill="white"/>
</mask>
<g mask="url(#mask13_114_2112)">
<path d="M310.676 184.833L311.732 189.887C311.732 189.887 311.782 190.487 311.444 191.18H311.441C310.799 192.487 311.108 193.287 310.376 193.433C310.173 193.473 309.819 193.434 309.368 193.327C307.187 192.834 302.164 190.287 302.204 189.633C302.255 188.847 302.205 185.167 302.205 185.167C302.205 185.167 300.309 184.167 299.397 183.327C301.111 182.647 302.637 180.407 302.637 180.407C302.637 180.407 301.383 178.647 302.499 177.713C303.507 176.873 304.532 178.033 304.532 178.033C305 173.993 312.532 172.913 312.532 172.913C312.532 172.913 316.193 181.127 310.676 184.833Z" fill="#F8A379"/>
</g>
<mask id="mask14_114_2112" style="mask-type:luminance" maskUnits="userSpaceOnUse" x="0" y="0" width="707" height="472">
<path d="M0 471.06H706.587V0H0V471.06Z" fill="white"/>
</mask>
<g mask="url(#mask14_114_2112)">
<path d="M338.039 211.7C333.027 212.087 322.888 208.02 322.888 208.02C322.888 208.02 320.996 243.5 319.789 244.02C319.699 244.06 319.567 244.1 319.396 244.14C317.303 244.633 309.689 245.113 309.601 243.873C309.577 243.553 309.731 241.513 309.975 238.513C310.744 229.033 312.407 209.953 312.173 205.433C311.868 199.46 310.796 190.86 310.796 190.86H310.8L311.541 189.367L311.555 189.34C311.555 189.34 320.619 192.833 322.781 194.473C325.543 196.567 334.724 202.647 337.596 203.273L338.039 211.7Z" fill="#2B45A2"/>
</g>
<mask id="mask15_114_2112" style="mask-type:luminance" maskUnits="userSpaceOnUse" x="0" y="0" width="707" height="472">
<path d="M0 471.06H706.587V0H0V471.06Z" fill="white"/>
</mask>
<g mask="url(#mask15_114_2112)">
<path d="M307.319 217.313C307.264 219.127 307.205 220.94 307.144 222.713C306.933 228.633 306.679 234.193 306.407 238.153C306.18 241.5 305.941 243.7 305.716 244.033C304.693 245.5 294.856 245.687 290.724 244.993C290.155 244.9 289.696 244.793 289.381 244.66C288.36 244.26 288.28 238.46 288.56 231.567C288.633 229.753 288.731 227.873 288.844 225.98C289.397 216.713 290.299 207.46 290.299 207.46V192.713C295.848 190.087 302.455 187.78 302.455 187.78L307.315 190.7C307.816 191.207 307.703 204.247 307.319 217.313Z" fill="#2B45A2"/>
</g>
<mask id="mask16_114_2112" style="mask-type:luminance" maskUnits="userSpaceOnUse" x="0" y="0" width="707" height="472">
<path d="M0 471.06H706.587V0H0V471.06Z" fill="white"/>
</mask>
<g mask="url(#mask16_114_2112)">
<path d="M309.975 238.513L306.408 238.153C307.344 224.42 308.117 191.513 307.315 190.7C308.649 191.446 309.772 192.047 309.908 192.073C310.076 192.113 310.448 191.513 310.796 190.86C310.796 190.86 311.867 199.46 312.173 205.42C312.407 209.953 310.744 229.033 309.975 238.513Z" fill="#F4F6F5"/>
</g>
<mask id="mask17_114_2112" style="mask-type:luminance" maskUnits="userSpaceOnUse" x="0" y="0" width="707" height="472">
<path d="M0 471.06H706.587V0H0V471.06Z" fill="white"/>
</mask>
<g mask="url(#mask17_114_2112)">
<path d="M311.287 213.74C312.044 206.5 311.544 198.82 310.589 191.66C310.589 191.66 310.392 192.033 310.195 192.06C310.052 192.073 309.677 191.807 309.677 191.807C309.987 196.993 309.964 202.487 309.467 207.62C309.207 210.193 308.932 212.753 308.219 215.06C308.044 215.647 307.827 216.193 307.593 216.727C306.431 219.487 304.128 221.047 301.344 222.02C300.339 222.38 298.764 222.807 297.724 223.113C291.156 224.913 283.94 227.033 279.281 232.54C278.289 233.713 277.417 235.033 276.748 236.487C276.748 236.487 276.949 241.02 277.693 241.9C278.437 242.767 282.184 238.753 282.184 238.753C284.872 231.9 292.547 229.353 298.981 226.953C301.612 225.967 304.233 225.06 306.487 223.26C309.495 220.967 310.837 217.393 311.287 213.74Z" fill="#73B32D"/>
</g>
<mask id="mask18_114_2112" style="mask-type:luminance" maskUnits="userSpaceOnUse" x="0" y="0" width="707" height="472">
<path d="M0 471.06H706.587V0H0V471.06Z" fill="white"/>
</mask>
<g mask="url(#mask18_114_2112)">
<path d="M316.911 215.646H265.347C264.345 215.646 263.533 214.833 263.533 213.833C263.533 212.833 264.345 212.02 265.347 212.02H316.911C317.912 212.02 318.724 212.833 318.724 213.833C318.724 214.833 317.912 215.646 316.911 215.646Z" fill="#2E3224"/>
</g>
<mask id="mask19_114_2112" style="mask-type:luminance" maskUnits="userSpaceOnUse" x="0" y="0" width="707" height="472">
<path d="M0 471.06H706.587V0H0V471.06Z" fill="white"/>
</mask>
<g mask="url(#mask19_114_2112)">
<path d="M314.555 218.887H262.992C261.989 218.887 261.179 218.087 261.179 217.073C261.179 216.073 261.989 215.26 262.992 215.26H314.555C315.556 215.26 316.368 216.073 316.368 217.073C316.368 218.087 315.556 218.887 314.555 218.887Z" fill="#2E3224"/>
</g>
<mask id="mask20_114_2112" style="mask-type:luminance" maskUnits="userSpaceOnUse" x="0" y="0" width="707" height="472">
<path d="M0 471.06H706.587V0H0V471.06Z" fill="white"/>
</mask>
<g mask="url(#mask20_114_2112)">
<path d="M308.4 220.633H256.837C255.836 220.633 255.024 219.82 255.024 218.82C255.024 217.807 255.836 217.007 256.837 217.007H308.4C309.401 217.007 310.213 217.807 310.213 218.82C310.213 219.82 309.401 220.633 308.4 220.633Z" fill="#2E3224"/>
</g>
<mask id="mask21_114_2112" style="mask-type:luminance" maskUnits="userSpaceOnUse" x="0" y="0" width="707" height="472">
<path d="M0 471.06H706.587V0H0V471.06Z" fill="white"/>
</mask>
<g mask="url(#mask21_114_2112)">
<path d="M316.911 224.42H265.347C264.345 224.42 263.533 223.607 263.533 222.607C263.533 221.593 264.345 220.793 265.347 220.793H316.911C317.912 220.793 318.724 221.593 318.724 222.607C318.724 223.607 317.912 224.42 316.911 224.42Z" fill="#2E3224"/>
</g>
<mask id="mask22_114_2112" style="mask-type:luminance" maskUnits="userSpaceOnUse" x="0" y="0" width="707" height="472">
<path d="M0 471.06H706.587V0H0V471.06Z" fill="white"/>
</mask>
<g mask="url(#mask22_114_2112)">
<path d="M306.36 226.62H254.797C253.796 226.62 252.984 225.807 252.984 224.807C252.984 223.807 253.796 222.993 254.797 222.993H306.36C307.363 222.993 308.173 223.807 308.173 224.807C308.173 225.807 307.363 226.62 306.36 226.62Z" fill="#2E3224"/>
</g>
<mask id="mask23_114_2112" style="mask-type:luminance" maskUnits="userSpaceOnUse" x="0" y="0" width="707" height="472">
<path d="M0 471.06H706.587V0H0V471.06Z" fill="white"/>
</mask>
<g mask="url(#mask23_114_2112)">
<path d="M314.033 231.673H262.469C261.468 231.673 260.656 230.86 260.656 229.86C260.656 228.847 261.468 228.047 262.469 228.047H314.033C315.035 228.047 315.847 228.847 315.847 229.86C315.847 230.86 315.035 231.673 314.033 231.673Z" fill="#2E3224"/>
</g>
<mask id="mask24_114_2112" style="mask-type:luminance" maskUnits="userSpaceOnUse" x="0" y="0" width="707" height="472">
<path d="M0 471.06H706.587V0H0V471.06Z" fill="white"/>
</mask>
<g mask="url(#mask24_114_2112)">
<path d="M311.447 228.927H259.884C258.883 228.927 258.071 228.127 258.071 227.113C258.071 226.113 258.883 225.3 259.884 225.3H311.447C312.449 225.3 313.26 226.113 313.26 227.113C313.26 228.127 312.449 228.927 311.447 228.927Z" fill="#2E3224"/>
</g>
<mask id="mask25_114_2112" style="mask-type:luminance" maskUnits="userSpaceOnUse" x="0" y="0" width="707" height="472">
<path d="M0 471.06H706.587V0H0V471.06Z" fill="white"/>
</mask>
<g mask="url(#mask25_114_2112)">
<path d="M313.74 222.833H262.176C261.175 222.833 260.363 222.02 260.363 221.02C260.363 220.007 261.175 219.207 262.176 219.207H313.74C314.741 219.207 315.553 220.007 315.553 221.02C315.553 222.02 314.741 222.833 313.74 222.833Z" fill="#2E3224"/>
</g>
<mask id="mask26_114_2112" style="mask-type:luminance" maskUnits="userSpaceOnUse" x="0" y="0" width="707" height="472">
<path d="M0 471.06H706.587V0H0V471.06Z" fill="white"/>
</mask>
<g mask="url(#mask26_114_2112)">
<path d="M310.152 235.3H258.589C257.588 235.3 256.776 234.487 256.776 233.487C256.776 232.473 257.588 231.673 258.589 231.673H310.152C311.155 231.673 311.965 232.473 311.965 233.487C311.965 234.487 311.155 235.3 310.152 235.3Z" fill="#2E3224"/>
</g>
<mask id="mask27_114_2112" style="mask-type:luminance" maskUnits="userSpaceOnUse" x="0" y="0" width="707" height="472">
<path d="M0 471.06H706.587V0H0V471.06Z" fill="white"/>
</mask>
<g mask="url(#mask27_114_2112)">
<path d="M307.055 233.287H255.491C254.489 233.287 253.677 232.473 253.677 231.473C253.677 230.473 254.489 229.66 255.491 229.66H307.055C308.056 229.66 308.867 230.473 308.867 231.473C308.867 232.473 308.056 233.287 307.055 233.287Z" fill="#2E3224"/>
</g>
<mask id="mask28_114_2112" style="mask-type:luminance" maskUnits="userSpaceOnUse" x="0" y="0" width="707" height="472">
<path d="M0 471.06H706.587V0H0V471.06Z" fill="white"/>
</mask>
<g mask="url(#mask28_114_2112)">
<path d="M290.299 192.713V207.46C290.299 207.46 286.609 207.647 283.405 209.233C280.201 210.833 268.88 233.113 268.88 233.113L267.641 232.633L265.617 231.847C265.656 231.727 270.625 215.82 273.035 210.26C275.456 204.673 279.755 199.98 284.02 196.367C285.372 195.22 287.721 193.926 290.299 192.713Z" fill="#2B45A2"/>
</g>
<mask id="mask29_114_2112" style="mask-type:luminance" maskUnits="userSpaceOnUse" x="0" y="0" width="707" height="472">
<path d="M0 471.06H706.587V0H0V471.06Z" fill="white"/>
</mask>
<g mask="url(#mask29_114_2112)">
<path d="M269.422 236.06C268.744 236.327 268.132 235.114 268.132 235.114C268.132 235.114 268.132 237.327 267.285 237.42C265.829 237.58 263.568 236.327 264.083 234.754C264.599 233.167 265.617 231.847 265.617 231.847L267.641 232.634L268.88 233.114H268.881C268.847 233.26 270.1 235.78 269.422 236.06Z" fill="#F8A379"/>
</g>
<mask id="mask30_114_2112" style="mask-type:luminance" maskUnits="userSpaceOnUse" x="0" y="0" width="707" height="472">
<path d="M0 471.06H706.587V0H0V471.06Z" fill="white"/>
</mask>
<g mask="url(#mask30_114_2112)">
<path d="M486.067 202.927C473.547 205.754 471.253 208.047 468.427 220.567C465.6 208.047 463.307 205.754 450.787 202.927C463.307 200.1 465.6 197.807 468.427 185.287C471.253 197.807 473.547 200.1 486.067 202.927Z" fill="white"/>
</g>
<mask id="mask31_114_2112" style="mask-type:luminance" maskUnits="userSpaceOnUse" x="0" y="0" width="707" height="472">
<path d="M0 471.06H706.587V0H0V471.06Z" fill="white"/>
</mask>
<g mask="url(#mask31_114_2112)">
<path d="M254.499 159.473C243.525 161.953 241.516 163.967 239.037 174.94C236.557 163.967 234.548 161.953 223.576 159.473C234.548 156.993 236.557 154.993 239.037 144.02C241.516 154.993 243.525 156.993 254.499 159.473Z" fill="white"/>
</g>
<mask id="mask32_114_2112" style="mask-type:luminance" maskUnits="userSpaceOnUse" x="0" y="0" width="707" height="472">
<path d="M0 471.06H706.587V0H0V471.06Z" fill="white"/>
</mask>
<g mask="url(#mask32_114_2112)">
<path d="M387.14 369.54C380.852 370.967 379.7 372.113 378.28 378.407C376.86 372.113 375.708 370.967 369.42 369.54C375.708 368.127 376.86 366.967 378.28 360.687C379.7 366.967 380.852 368.127 387.14 369.54Z" fill="white"/>
</g>
</svg>
