<svg width="707" height="472" viewBox="0 0 707 472" fill="none" xmlns="http://www.w3.org/2000/svg">
<path d="M0 471.06H706.587V0H0V471.06Z" fill="#FFFBEB"/>
<path d="M353.346 429.887C260.453 429.887 185.146 426.66 185.146 422.7C185.146 418.727 260.453 415.513 353.346 415.513C446.24 415.513 521.533 418.727 521.533 422.7C521.533 426.66 446.24 429.887 353.346 429.887Z" fill="#B4D1E1"/>
<path d="M481.146 422.7H225.546V407.527H481.146V422.7Z" fill="#2B45A2"/>
<path d="M481.146 407.527H225.546L244.36 396.847H480.04L481.146 407.527Z" fill="#4162B7"/>
<path d="M479.76 396.847H244.36V381.673H479.76V396.847Z" fill="#2B45A2"/>
<path d="M479.76 381.673H244.36L263.173 371.473H478.373L479.76 381.673Z" fill="#4162B7"/>
<path d="M478.373 371.474H263.173V356.3H478.373V371.474Z" fill="#2B45A2"/>
<path d="M478.373 356.3H263.173L282 346.1H476.987L478.373 356.3Z" fill="#4162B7"/>
<path d="M476.987 346.1H282V330.927H476.987V346.1Z" fill="#2B45A2"/>
<path d="M476.987 330.927H282L301.147 321.393H475.6L476.987 330.927Z" fill="#4162B7"/>
<path d="M475.6 321.394H300.813V306.22H475.6V321.394Z" fill="#2B45A2"/>
<path d="M475.6 306.22H300.813L320.907 295.82H475.493L475.6 306.22Z" fill="#4162B7"/>
<path d="M475.493 295.82H320.907V280.647H475.493V295.82Z" fill="#2B45A2"/>
<path d="M475.493 280.647H320.907L343.04 270.447H487.467L475.493 280.647Z" fill="#4162B7"/>
<path d="M487.467 270.447H343.04V256.06H487.467V270.447Z" fill="#2B45A2"/>
<path d="M487.467 256.06H343.04L360.453 246.393H494.72L487.467 256.06Z" fill="#4162B7"/>
<path d="M494.72 246.394H360.453V232.794H494.72V246.394Z" fill="#2B45A2"/>
<path d="M494.72 232.793H360.453L370.6 223.66H494.72V232.793Z" fill="#4162B7"/>
<path d="M494.72 223.66H370.6V210.847H494.72V223.66Z" fill="#2B45A2"/>
<path d="M494.72 210.847H370.6L381.653 202.233H495.627L494.72 210.847Z" fill="#4162B7"/>
<path d="M495.627 202.233H381.653V190.22H495.627V202.233Z" fill="#2B45A2"/>
<path d="M495.627 190.22H381.653L384.507 182.14H490.893L495.627 190.22Z" fill="#4162B7"/>
<path d="M490.893 182.14H384.507V170.9H490.893V182.14Z" fill="#2B45A2"/>
<path d="M490.893 170.9H384.507L390.987 163.26H484.653L490.893 170.9Z" fill="#4162B7"/>
<path d="M484.653 163.26H390.987V152.82H484.653V163.26Z" fill="#2B45A2"/>
<path d="M484.653 152.82H390.987L396.52 145.794H479.12L484.653 152.82Z" fill="#4162B7"/>
<path d="M487.467 270.447V286.78L475.493 295.82C475.493 295.82 475.133 280.954 475.493 280.647C475.84 280.34 487.467 270.447 487.467 270.447Z" fill="#2B45A2"/>
<path d="M487.467 256.06V270.447C487.467 270.447 494.72 259.767 494.72 259.527C494.72 259.3 494.72 246.393 494.72 246.393L487.467 256.06Z" fill="#2B45A2"/>
<path d="M457.253 85.6465V105.087C457.253 107.22 456.907 109.287 456.267 111.22C455.613 113.153 454.68 114.967 453.493 116.58C453.213 116.94 452.933 117.3 452.64 117.647C452.387 117.953 452.107 118.247 451.827 118.54C451.6 118.78 451.373 119.02 451.133 119.247C448.613 121.607 445.467 123.313 441.973 124.073C440.64 124.367 439.24 124.513 437.813 124.513C436.387 124.513 434.987 124.367 433.653 124.073C433.093 123.953 432.533 123.807 432 123.633C429.84 122.967 427.853 121.927 426.093 120.593C425.533 120.167 425 119.713 424.493 119.247C424.253 119.02 424.027 118.78 423.787 118.54C423.52 118.247 423.24 117.953 422.987 117.647C422.693 117.3 422.4 116.94 422.133 116.58C420.947 114.967 420.013 113.153 419.36 111.22C418.72 109.287 418.373 107.22 418.373 105.087V85.6465H457.253Z" fill="#F4B20C"/>
<path d="M457.253 85.6465V105.087C457.253 107.22 456.907 109.287 456.267 111.22C455.613 113.153 454.68 114.967 453.493 116.58C453.213 116.94 452.933 117.3 452.64 117.647C452.387 117.953 452.107 118.247 451.827 118.54C451.6 118.78 451.373 119.02 451.133 119.247C448.613 121.607 445.467 123.313 441.973 124.073C440.64 124.367 439.24 124.513 437.813 124.513C437.24 124.513 436.68 124.5 436.12 124.447C436.96 124.38 437.787 124.247 438.587 124.073C442.08 123.313 445.227 121.607 447.747 119.247C447.987 119.02 448.213 118.78 448.453 118.54C448.733 118.247 449 117.953 449.253 117.647C449.547 117.3 449.84 116.94 450.107 116.58C451.293 114.967 452.227 113.153 452.88 111.22C453.52 109.287 453.867 107.22 453.867 105.087V85.6465H457.253Z" fill="#F39610"/>
<path d="M432 123.633C429.84 122.967 427.853 121.927 426.093 120.593C425.733 120.167 425.4 119.713 425.08 119.247C424.92 119.02 424.773 118.78 424.627 118.54C424.453 118.247 424.28 117.953 424.12 117.647C423.933 117.3 423.747 116.94 423.573 116.58C422.827 114.967 422.227 113.153 421.813 111.22C421.413 109.287 421.187 107.22 421.187 105.087V85.6466H423.333V105.087C423.333 107.22 423.56 109.287 423.973 111.22C424.373 113.153 424.973 114.967 425.733 116.58C425.907 116.94 426.08 117.3 426.267 117.647C426.44 117.953 426.6 118.247 426.787 118.54C426.933 118.78 427.08 119.02 427.227 119.247C428.573 121.233 430.2 122.74 432 123.633Z" fill="#F5BF18"/>
<path d="M423.787 118.54C419.107 118.367 414.733 116.433 411.427 113.073C408.053 109.633 406.187 105.087 406.187 100.26V89.5666H418.373V91.3799H408V100.26C408 108.34 413.947 115.153 421.68 116.5C421.84 116.527 421.987 116.553 422.133 116.58C422.4 116.94 422.693 117.3 422.987 117.647C423.24 117.953 423.52 118.247 423.787 118.54Z" fill="#F4B20C"/>
<path d="M418.373 91.3799V92.0601H408V91.3799H418.373Z" fill="#F39610"/>
<path d="M424.493 119.247L424.12 119.233C419.307 119.14 414.8 117.193 411.427 113.767C408.04 110.327 406.187 105.767 406.187 100.94V90.2601V100.26C406.187 105.087 408.053 109.633 411.427 113.073C414.733 116.433 419.107 118.367 423.787 118.54C424.027 118.78 424.253 119.02 424.493 119.247Z" fill="#F39610"/>
<path d="M469.453 89.5666V100.26C469.453 100.447 469.453 100.62 469.44 100.793C469.307 105.42 467.467 109.767 464.213 113.073C460.907 116.447 456.52 118.38 451.827 118.54C452.107 118.247 452.387 117.953 452.64 117.647C452.933 117.3 453.213 116.94 453.493 116.58C453.64 116.553 453.787 116.527 453.947 116.5C461.52 115.193 467.387 108.62 467.627 100.767C467.64 100.607 467.64 100.433 467.64 100.26V91.3799H457.253V89.5666H469.453Z" fill="#F4B20C"/>
<path d="M469.44 100.793V100.94C469.44 105.767 467.587 110.327 464.2 113.767C460.827 117.193 456.32 119.14 451.507 119.233L451.133 119.247C451.373 119.02 451.6 118.78 451.827 118.54C456.52 118.38 460.907 116.447 464.213 113.073C467.467 109.767 469.307 105.42 469.44 100.793Z" fill="#F39610"/>
<path d="M467.64 91.3799V100.26C467.64 100.433 467.64 100.607 467.627 100.767V92.0601H457.253V91.3799H467.64Z" fill="#F39610"/>
<path d="M427.906 137.54H447.72V132.767H427.906V137.54Z" fill="#F4B20C"/>
<path d="M444.733 137.54H447.72V132.767H444.733V137.54Z" fill="#F39610"/>
<path d="M428.96 137.54H430.946V132.908H428.96V137.54Z" fill="#F5BF18"/>
<path d="M427.906 132.9H447.72V132.758H427.906V132.9Z" fill="#F39610"/>
<path d="M453.627 139.687V149.167H422V139.687C422 138.86 422.467 138.154 423.133 137.794C423.44 137.634 423.787 137.54 424.147 137.54H451.48C451.84 137.54 452.187 137.634 452.493 137.794C453.16 138.154 453.627 138.86 453.627 139.687Z" fill="#3D2E25"/>
<path d="M453.627 139.687V149.167H446.773V137.54H451.48C452.667 137.54 453.627 138.5 453.627 139.687Z" fill="#30241D"/>
<path d="M424.146 149.167H428.48V137.794H424.146V149.167Z" fill="#574B43"/>
<path d="M446.773 137.793H428.48V137.54H446.773V137.793Z" fill="#574B43"/>
<path d="M452.493 137.793H446.773V137.54H451.48C451.493 137.54 451.493 137.54 451.507 137.54H451.52C451.52 137.54 451.533 137.54 451.547 137.54C451.56 137.54 451.56 137.54 451.573 137.54H451.586C451.6 137.54 451.627 137.54 451.64 137.54C451.653 137.54 451.653 137.54 451.653 137.54C451.666 137.54 451.667 137.54 451.68 137.54C451.693 137.553 451.707 137.553 451.707 137.553H451.72C452 137.58 452.253 137.66 452.493 137.793Z" fill="#4C4139"/>
<path d="M424.147 137.793H423.133C423.44 137.633 423.787 137.54 424.147 137.54V137.793Z" fill="#574B43"/>
<path d="M424.146 137.793H428.48V137.539H424.146V137.793Z" fill="#70665E"/>
<path d="M443.373 132.753H432.253L433.653 124.073C434.987 124.367 436.387 124.513 437.813 124.513C439.24 124.513 440.64 124.367 441.973 124.073L443.373 132.753Z" fill="#F4B20C"/>
<path d="M435.693 124.407C435.427 124.38 435.147 124.34 434.867 124.3L435.693 124.407Z" fill="#F5BF18"/>
<path d="M434.373 132.753H433.653L434.867 124.3C435.147 124.34 435.427 124.38 435.693 124.407L434.373 132.753Z" fill="#F5BF18"/>
<path d="M443.373 132.753H441.72L440.733 125.273C437.213 125.473 433.653 124.073 433.653 124.073C434.987 124.367 436.387 124.513 437.813 124.513C439.24 124.513 440.64 124.367 441.973 124.073L443.373 132.753Z" fill="#F39610"/>
<path d="M442.987 82.3003C438.733 83.2603 437.947 84.047 436.987 88.3003C436.027 84.047 435.253 83.2603 431 82.3003C435.253 81.3403 436.027 80.5669 436.987 76.3136C437.947 80.5669 438.733 81.3403 442.987 82.3003Z" fill="white"/>
<path d="M419.693 119.713C417.333 120.246 416.907 120.673 416.373 123.033C415.84 120.673 415.413 120.246 413.053 119.713C415.413 119.18 415.84 118.753 416.373 116.393C416.907 118.753 417.333 119.18 419.693 119.713Z" fill="white"/>
<path d="M465.747 123.033C464.4 123.34 464.16 123.58 463.853 124.927C463.547 123.58 463.293 123.34 461.947 123.033C463.293 122.727 463.547 122.473 463.853 121.127C464.16 122.473 464.4 122.727 465.747 123.033Z" fill="white"/>
<path d="M234.533 306.66L234.68 310.327C234.733 310.354 235.56 310.794 236.467 311.207C237.347 311.607 238.387 312.327 238.747 312.287C239.16 312.234 239.893 311.54 240.467 310.94C240.867 310.514 241.187 310.127 241.253 310.06V310.047L240.387 306.407C243.187 303.807 243.067 299.06 243.067 299.06L243.08 299.047C242.613 298.46 240.213 295.18 239.053 294.954C239.053 294.954 236.547 303.114 232.427 304.66C233.507 306.127 234.533 306.66 234.533 306.66Z" fill="#F8A379"/>
<path d="M223.04 312.154C223.707 312.354 224.2 308.554 224.453 307.607C224.693 306.66 225.4 304.473 227.04 303.1C228.667 301.713 230.147 298.687 230.147 298.687C230.56 301.54 231.52 303.46 232.427 304.714C236.547 303.167 239.067 295.007 239.067 295.007C240.213 295.234 242.613 298.513 243.08 299.1C244.76 294.98 243.107 291.434 239.867 290.14C236.613 288.847 234.12 290.167 234.12 290.167C234.36 289.06 232.587 287.34 230.987 288.807C229.173 290.474 231.28 292.38 231.28 292.38C231.28 292.38 229.973 295.607 229.347 298.02C228.72 300.434 225.067 302.834 223.72 303.74C222.36 304.647 222.227 306.167 222.68 306.393C223.107 306.607 223.6 306.1 223.613 306.087C222.373 308.22 222.373 311.954 223.04 312.154Z" fill="#12110F"/>
<path d="M191.746 365.073C191.746 365.073 190.48 362.487 189.346 362.727C188.213 362.98 184.613 368.713 184.693 369.14C184.773 369.567 185.613 370.02 186.16 369.713C186.72 369.42 189.866 367.487 189.906 367.46L191.746 365.073Z" fill="#12110F"/>
<path d="M262.747 398.927C262.747 398.927 261.707 401.607 262.653 402.274C263.6 402.94 270.267 401.687 270.52 401.34C270.787 400.994 270.547 400.073 269.947 399.86C269.347 399.66 265.787 398.66 265.747 398.66L262.747 398.927Z" fill="#12110F"/>
<path d="M248.507 367.754C248.507 367.754 252.227 370.274 253.4 373.007C255.6 378.18 262.347 399.007 262.64 399.18C263.107 399.447 266.213 398.967 266.2 398.58C266.2 398.34 261.12 374.967 258.773 369.047C257.68 366.274 255.507 362.074 255.507 362.074L248.507 367.754Z" fill="#F8A379"/>
<path d="M233.88 369.82C233.88 369.82 228.173 383.14 222.346 384.233C213.666 385.86 194.653 373.673 189.853 367.247L191.64 365.033C191.64 365.033 212.933 379.62 219.533 376.913C223.253 375.393 226.666 364.567 226.666 364.567L233.88 369.82Z" fill="#F8A379"/>
<path d="M224.667 370.38C225.733 371.633 235.306 372.087 238.146 371.553C254.2 368.5 256.56 364.447 256.36 363.26C256.16 362.087 252.227 353.687 248.2 346.94C247.027 344.967 246.346 344.007 246.146 343.527C246.12 343.487 243.227 342.673 239.36 342.473C238.28 342.42 237.16 342.367 236.08 342.313C232.213 342.127 228.76 341.967 228.76 341.967C228.76 341.967 228.36 342.807 227.893 344.047C227.147 346.033 226.213 349.033 226.453 351.22C226.826 354.767 225.427 360.78 225.307 361.407C225.2 362.033 223.613 369.127 224.667 370.38Z" fill="#3C465B"/>
<path d="M239.04 347.274C239.893 347.78 245.267 347.554 246.973 347.3C247.213 347.274 247.373 347.234 247.453 347.194C248.027 346.914 248.453 331.527 248.56 329.5C248.613 328.567 249.72 326.514 249.693 324.834C249.667 322.78 248.547 320.234 248.507 320.154C248.6 320.247 254.12 326.78 256.933 328.26C259.773 329.74 273.293 322.714 273.56 322.434C273.827 322.154 272.907 319.98 272.907 319.98C272.907 319.98 261.08 323.087 259.293 322.847C257.52 322.594 253.08 314.66 250.747 312.567C248.413 310.487 241.173 309.86 241.173 309.86L241.16 309.874L240.253 310.607L240.24 310.62C240.453 311.007 242.507 323.38 242.093 327.58C241.907 329.5 240.173 337.394 239.333 342.594C238.92 345.167 238.72 347.087 239.04 347.274Z" fill="#2B45A2"/>
<path d="M219.333 351.407C219.333 351.407 222 352.167 222.08 351.967C222.147 351.754 225.347 333.647 226.12 332.007C226.893 330.38 228.907 325.46 228.907 325.46C228.907 325.46 227.987 338.7 227.893 344.38C227.867 345.887 227.907 346.86 228.027 346.927C228.6 347.314 235.56 347.727 235.6 346.994C235.613 346.74 235.8 344.9 236.053 342.487C236.56 337.727 237.32 330.767 237.533 329.7C237.853 328.007 239.147 324.207 237.733 320.3C236.373 316.527 236.307 310.58 236.307 310.58L234.68 309.42C234.68 309.42 228.52 311.66 226.907 314.247C225.293 316.82 221.88 328.114 221.347 331.247C220.827 334.38 219.333 351.407 219.333 351.407Z" fill="#2B45A2"/>
<path d="M237.533 329.7C237.32 330.767 236.56 337.727 236.053 342.487C237.133 342.527 238.253 342.553 239.333 342.593C240.173 337.393 241.907 329.5 242.093 327.58C242.507 323.38 240.453 311.007 240.24 310.62C239.587 311.113 238.747 311.687 238.333 311.66C237.973 311.633 237.107 311.113 236.307 310.58C236.307 310.58 236.373 316.527 237.733 320.3C239.147 324.207 237.853 328.007 237.533 329.7Z" fill="white"/>
<path d="M222.08 351.967C222.08 351.967 223.373 354.594 222.747 355.354C222.107 356.114 221.187 354.22 221.187 354.22C221.187 354.22 221.053 356.274 220.173 356.527C219.307 356.78 218.027 356.087 217.84 355.327C217.653 354.567 218.093 352.247 219.333 351.407L222.08 351.967Z" fill="#F8A379"/>
<path d="M272.907 319.98C272.893 319.82 273.4 317.327 274.133 317.447C274.88 317.58 274.386 318.794 274.386 318.794C274.386 318.794 275.493 317.687 276.333 318.034C276.813 318.22 277.666 320.367 276.786 321.314C275.746 322.407 273.56 322.434 273.56 322.434L272.907 319.98Z" fill="#F8A379"/>
</svg>
