<svg width="707" height="472" viewBox="0 0 707 472" fill="none" xmlns="http://www.w3.org/2000/svg">
<mask id="mask0_119_3118" style="mask-type:luminance" maskUnits="userSpaceOnUse" x="0" y="0" width="707" height="472">
<path d="M0.0400391 471.255H706.626V0.194824H0.0400391V471.255Z" fill="white"/>
</mask>
<g mask="url(#mask0_119_3118)">
<path d="M706.626 471.255H0.0400391V0.201538H706.626V471.255Z" fill="#FFFBEB"/>
</g>
<mask id="mask1_119_3118" style="mask-type:luminance" maskUnits="userSpaceOnUse" x="0" y="0" width="707" height="472">
<path d="M0.0400391 471.255H706.626V0.194824H0.0400391V471.255Z" fill="white"/>
</mask>
<g mask="url(#mask1_119_3118)">
<path d="M427.32 143.215C421.6 99.2282 449.68 76.8016 491.44 76.3883C493.56 76.3616 497.893 76.3882 500.013 76.4815C508.84 76.6015 517.786 79.4549 525.08 84.3749C549.867 101.055 557.92 135.522 545.146 161.815C540.24 172.162 532.373 180.588 525.333 189.362C503.813 215.828 497.64 250.628 504.946 283.562C506.533 291.908 509.64 300.055 509.293 308.695C509.12 317.548 503.24 327.482 493.573 327.882C487.427 328.188 481.493 325.188 477.787 320.442C474.067 315.695 472.56 309.682 472.426 303.895C472.733 295.722 473 285.015 479.787 279.282C487.893 273.335 498.4 279.415 503.013 286.855C509.213 296.202 513.253 311.242 502.693 319.188C497.466 323.162 489.8 321.148 486.013 316.175C479.28 308.188 485.4 296.722 494.84 294.722C504.12 292.615 513.187 300.708 513.933 309.828C514.707 319.042 507.946 327.548 499.346 330.082C490.626 332.615 481.053 328.428 475.68 321.442C468.24 312.068 469.533 297.282 478.293 289.148C487.173 280.868 502 281.908 510.64 289.975C524.12 302.935 520.546 326.108 504.226 334.935C487.44 344.655 467.56 337.228 462.307 318.308C456.733 299.495 471.84 282.908 490.826 283.962C502.746 284.482 512.747 294.068 515.64 305.335C520.92 322.855 505.52 341.282 487.693 341.402C475.933 341.575 464.947 333.908 460.013 323.415C451.866 307.162 463.506 286.428 480.693 282.482C497.946 278.268 516.8 292.922 516.933 310.695C517.187 322.255 509.733 334.375 497.973 336.882C483.08 340.242 467.107 327.868 470.507 312.028C474.067 295.775 493.68 289.775 504.173 303.548C509.667 310.922 506.533 322.308 498.653 326.655C489.093 331.882 479.107 324.882 482.533 314.082C484.227 308.028 491.173 305.042 497.013 306.375C502.867 307.402 507.813 311.735 510.053 317.148C516.573 332.722 508.213 356.015 489.773 357.615C480.093 358.642 473.547 352.082 469.28 344.202C465.013 336.882 461.533 328.482 462.533 319.828C463.48 308.242 477.413 297.402 487.973 305.335C500.64 314.095 496.053 337.082 480.747 339.815C471.96 341.202 462.987 334.908 460.653 326.428C458.093 317.215 465.827 307.162 475.613 311.095C491.506 317.388 487.893 339.015 474.267 345.762C460.08 353.268 444.013 337.815 446.92 323.175C448.067 317.508 452.173 312.108 457.987 310.735C467.16 308.708 474.666 318.162 475.093 326.575C475.413 338.602 464.587 347.175 454.733 351.908C449.56 354.295 443.987 355.388 438.467 356.628C416.453 361.175 394.173 364.082 371.88 366.788C338.453 370.455 304.76 374.602 271.08 372.455C170.266 366.242 69.7732 355.722 -30.7335 345.908C-31.1868 345.855 -31.5201 345.455 -31.4668 345.002C-31.4268 344.548 -31.0269 344.215 -30.5736 344.268C69.9064 354.202 170.373 364.842 271.146 371.188C304.773 373.375 338.347 369.215 371.733 365.575C393.987 362.882 416.266 359.988 438.226 355.455C443.613 354.242 449.2 353.148 454.213 350.842C463.693 346.282 474.146 338.135 473.893 326.655C473.466 318.935 466.653 310.108 458.267 311.948C453 313.175 449.173 318.255 448.16 323.415C445.44 336.962 460.493 351.642 473.667 344.588C483.2 339.855 488.693 325.948 481.573 317.068C478.347 313.055 472.426 310.135 467.48 312.442C462.653 314.748 460.6 321.068 462 326.068C463.4 331.255 467.626 335.535 472.626 337.495C483.92 342.175 494.053 331.575 493.907 320.482C494.253 309.108 482.586 299.348 472.226 306.628C459.32 315.375 463.64 332.175 470.613 343.415C473.346 348.082 476.613 352.868 481.747 354.935C489.373 357.962 498.493 354.922 503.613 348.682C513.453 337.362 514.44 311.908 496.707 308.002C491.547 306.882 485.667 309.282 484.133 314.615C482.347 319.495 484.653 325.868 490.253 326.548C498.48 327.962 505.507 319.788 505.24 311.935C505.107 303.682 496.88 297.495 489 297.628C477.973 297.708 469.666 309.908 472.36 320.362C474.746 331.135 487.16 337.482 497.573 335.082C508.427 332.775 515.307 321.415 515.04 310.735C514.907 294.175 497.2 280.428 481.133 284.375C465.173 288.082 454.2 307.415 461.84 322.562C466.4 332.308 476.773 339.548 487.667 339.362C504.12 339.215 518.547 322.148 513.6 305.882C510.907 295.468 501.693 286.575 490.693 286.108C473.2 285.175 459.253 300.335 464.44 317.722C467.213 328.162 476.52 336.788 487.6 336.922C498.347 337.308 509.347 331.135 514.067 321.442C518.693 311.842 516.96 299.042 509.053 291.695C501.36 284.468 487.773 283.468 479.907 290.882C472.107 298.122 470.853 311.615 477.587 319.962C482.4 326.202 490.933 329.975 498.667 327.735C512.533 323.562 516.906 304.948 502.826 298.002C493 293.068 480.413 305.335 487.987 314.588C496.853 324.775 508.24 314.642 506.533 303.335C505.133 292.735 497.267 277.588 484.653 279.842C475.613 282.162 475.386 296.188 475.093 303.842C475 314.455 481.893 325.682 493.413 325.188C498.693 324.948 502.933 321.068 504.867 316.268C509.227 305.962 504.173 294.562 502.24 284.122C498.747 267.495 498.027 250.148 501.467 233.428C503.773 222.282 507.907 211.548 513.507 201.655C518.867 191.708 526.653 183.228 533.493 174.388C540.293 165.695 545.373 155.788 546.92 144.815C551.373 118.442 535.12 87.7749 507.813 82.5616C502.733 81.5083 496.84 81.9349 491.653 82.0815C464.107 83.3482 437.453 95.1082 436.373 125.935C436.16 131.122 436.733 136.375 437.733 141.562C438.813 148.748 428.427 150.255 427.32 143.215Z" fill="#3C465B"/>
</g>
<mask id="mask2_119_3118" style="mask-type:luminance" maskUnits="userSpaceOnUse" x="0" y="0" width="707" height="472">
<path d="M0.0400391 471.255H706.626V0.194824H0.0400391V471.255Z" fill="white"/>
</mask>
<g mask="url(#mask2_119_3118)">
<path d="M284.653 367.282C284.653 367.282 284.293 370.268 285.026 371.935C285.746 373.602 296.52 371.148 297.066 370.482C297.6 369.802 297.453 369.028 296.04 368.415C294.613 367.788 290.56 366.455 290.56 366.455C290.56 366.455 285.253 366.682 284.653 367.282Z" fill="#100F0D"/>
</g>
<mask id="mask3_119_3118" style="mask-type:luminance" maskUnits="userSpaceOnUse" x="0" y="0" width="707" height="472">
<path d="M0.0400391 471.255H706.626V0.194824H0.0400391V471.255Z" fill="white"/>
</mask>
<g mask="url(#mask3_119_3118)">
<path d="M224.76 353.895C224.76 353.895 222.147 355.402 221.253 356.988C220.36 358.575 228.773 365.735 229.627 365.762C230.48 365.788 231.013 365.215 230.667 363.695C230.32 362.188 229.2 358.375 229.2 358.375C229.2 358.375 225.6 354.015 224.76 353.895Z" fill="#100F0D"/>
</g>
<mask id="mask4_119_3118" style="mask-type:luminance" maskUnits="userSpaceOnUse" x="0" y="0" width="707" height="472">
<path d="M0.0400391 471.255H706.626V0.194824H0.0400391V471.255Z" fill="white"/>
</mask>
<g mask="url(#mask4_119_3118)">
<path d="M287.36 283.028C289.106 288.695 292.653 309.455 292.48 313.601C292.293 318.255 290.56 366.455 290.56 366.455C290.56 366.455 284.56 367.801 284.667 367.201C284.76 366.601 280.053 323.375 279.107 316.788C278.16 310.188 272.48 295.828 271.826 296.028C271.16 296.228 265.413 316.201 261.573 320.908C257.72 325.615 234.72 354.641 229.28 358.668L224.72 353.855C224.72 353.855 248.093 321.175 249.507 316.081C250.493 312.508 258.787 279.535 255.267 274.908L268.107 274.961L274.6 278.108C274.6 278.108 287.146 282.348 287.36 283.028Z" fill="#3C465B"/>
</g>
<mask id="mask5_119_3118" style="mask-type:luminance" maskUnits="userSpaceOnUse" x="0" y="0" width="707" height="472">
<path d="M0.0400391 471.255H706.626V0.194824H0.0400391V471.255Z" fill="white"/>
</mask>
<g mask="url(#mask5_119_3118)">
<path d="M295.213 215.042C295.213 215.042 297.227 223.775 291.64 226.455L292.28 229.802V229.815C292.24 229.855 291.8 230.508 291.226 231.188C290.546 231.988 289.68 232.868 289.067 232.922C288.427 232.975 286.733 232.548 285.36 231.948C284.32 231.482 283.4 230.522 283.373 230.402C283.053 229.228 283.48 225.908 283.48 225.908C283.48 225.908 282.387 224.708 281.373 222.908C283.773 221.962 284.44 220.002 284.44 220.002C284.44 220.002 282.92 218.162 284.507 217.148C285.72 216.375 286.146 217.855 286.16 217.908C286.173 217.842 286.653 216.042 288.333 215.588C290.64 214.988 295 214.948 295.213 215.042Z" fill="#F8A379"/>
</g>
<mask id="mask6_119_3118" style="mask-type:luminance" maskUnits="userSpaceOnUse" x="0" y="0" width="707" height="472">
<path d="M0.0400391 471.255H706.626V0.194824H0.0400391V471.255Z" fill="white"/>
</mask>
<g mask="url(#mask6_119_3118)">
<path d="M296.533 208.922C296.387 208.695 290.027 208.002 285.133 209.148C280.227 210.282 279.28 213.842 279.68 218.002C279.853 219.802 280.587 221.522 281.373 222.908C283.773 221.962 284.44 220.002 284.44 220.002C284.44 220.002 282.92 218.162 284.507 217.148C285.747 216.362 286.16 217.908 286.16 217.908C286.16 217.908 286.613 216.055 288.333 215.588C290.64 214.988 295 214.948 295.213 215.042C296.373 214.415 296.667 209.162 296.533 208.922Z" fill="#100F0D"/>
</g>
<mask id="mask7_119_3118" style="mask-type:luminance" maskUnits="userSpaceOnUse" x="0" y="0" width="707" height="472">
<path d="M0.0400391 471.255H706.626V0.194824H0.0400391V471.255Z" fill="white"/>
</mask>
<g mask="url(#mask7_119_3118)">
<path d="M343.587 223.775C343.6 224.148 328.293 242.601 320.4 245.108C312.507 247.615 306.573 248.148 302.373 247.641C301.347 247.641 291.347 281.948 287.813 283.441C287.133 283.721 286.187 284.095 285.08 284.468C280.44 286.015 273.227 287.695 272.987 284.268C272.893 282.895 273.587 280.655 274.6 278.108C276.747 272.748 280.333 266.015 281.213 263.081C282.427 259.055 289.387 234.375 290.747 230.748C290.853 230.468 292.16 229.815 292.2 229.801C292.2 229.801 302.2 234.748 305.853 235.641C309.493 236.535 314.16 237.735 318.173 236.961C322.187 236.175 341.32 220.655 341.387 220.975C341.453 221.308 343.56 223.388 343.587 223.775Z" fill="#2B45A2"/>
</g>
<mask id="mask8_119_3118" style="mask-type:luminance" maskUnits="userSpaceOnUse" x="0" y="0" width="707" height="472">
<path d="M0.0400391 471.255H706.626V0.194824H0.0400391V471.255Z" fill="white"/>
</mask>
<g mask="url(#mask8_119_3118)">
<path d="M284.973 229.508C284.493 231.655 282.92 237.042 281.48 241.788C280.2 245.975 273.413 265.295 268.107 274.962C266.413 278.028 264.893 280.122 263.72 280.468C260.12 281.535 254.493 280.588 250.96 279.402C249.746 278.988 248.773 278.548 248.226 278.148C246.08 276.588 253.133 272.575 255.267 270.522C257.387 268.468 264.333 243.455 263.307 242.988C262.293 242.535 253.373 244.362 247.24 243.868C241.107 243.362 220.893 239.028 220.893 239.028L221.187 234.602C221.187 234.602 243.066 235.708 246.36 235.135C249.653 234.562 265.973 228.868 269.04 228.388C272.107 227.922 283.6 227.388 283.6 227.388C283.6 227.388 285.053 229.161 284.973 229.508Z" fill="#2B45A2"/>
</g>
<mask id="mask9_119_3118" style="mask-type:luminance" maskUnits="userSpaceOnUse" x="0" y="0" width="707" height="472">
<path d="M0.0400391 471.255H706.626V0.194824H0.0400391V471.255Z" fill="white"/>
</mask>
<g mask="url(#mask9_119_3118)">
<path d="M290.747 230.748C289.387 234.375 282.427 259.055 281.213 263.081C280.333 266.015 276.747 272.748 274.6 278.108C272.013 276.841 269.587 275.668 268.107 274.962C273.413 265.295 280.2 245.975 281.48 241.788C282.92 237.042 284.493 231.655 284.973 229.508C286.067 230.535 287.507 231.495 288.147 231.655C288.733 231.815 289.84 231.281 290.747 230.748Z" fill="white"/>
</g>
<mask id="mask10_119_3118" style="mask-type:luminance" maskUnits="userSpaceOnUse" x="0" y="0" width="707" height="472">
<path d="M0.0400391 471.255H706.626V0.194824H0.0400391V471.255Z" fill="white"/>
</mask>
<g mask="url(#mask10_119_3118)">
<path d="M341.387 220.975C341.387 220.975 341.507 217.335 342.507 217.202C343.52 217.055 343.267 218.988 343.267 218.988C343.267 218.988 345 216.482 346.16 216.682C347.32 216.882 349.04 218.988 347.92 220.895C347.147 222.215 343.587 223.775 343.587 223.775C343.587 223.775 341.253 221.962 341.387 220.975Z" fill="#F8A379"/>
</g>
<mask id="mask11_119_3118" style="mask-type:luminance" maskUnits="userSpaceOnUse" x="0" y="0" width="707" height="472">
<path d="M0.0400391 471.255H706.626V0.194824H0.0400391V471.255Z" fill="white"/>
</mask>
<g mask="url(#mask11_119_3118)">
<path d="M287.347 231.255L287.213 231.388C283.52 235.135 278.44 236.335 273.547 234.308C270.533 233.055 267.827 231.281 264.933 229.655C263.227 228.681 261.44 227.721 259.64 226.881C252.76 223.615 245.387 222.481 237.92 224.375C237.92 224.375 233.893 227.188 234.613 228.015C235.32 228.841 239.293 229.308 239.293 229.308C243.653 227.895 248.373 227.695 252.88 228.735C255.453 229.308 257.973 230.228 260.387 231.295C264.48 233.068 268.307 235.441 272.587 236.921C275.453 237.881 278.627 238.068 281.533 237.161C284.387 236.295 287.413 234.228 289 231.575L288.147 231.655L287.347 231.255Z" fill="#73B32D"/>
</g>
<mask id="mask12_119_3118" style="mask-type:luminance" maskUnits="userSpaceOnUse" x="0" y="0" width="707" height="472">
<path d="M0.0400391 471.255H706.626V0.194824H0.0400391V471.255Z" fill="white"/>
</mask>
<g mask="url(#mask12_119_3118)">
<path d="M221.187 234.642C221.187 234.642 219.32 231.815 218.16 231.762C217 231.708 218.507 234.242 218.507 234.242C218.507 234.242 217.52 233.015 215.787 233.508C214.573 233.855 215.227 238.282 216.333 238.775C217.827 239.468 220.893 239.028 220.893 239.028L221.187 234.642Z" fill="#F8A379"/>
</g>
</svg>
